<ttFont>
          <CharString index="0">
            171 280 -94 callsubr
            888 hmoveto
            175 -212 125 -297 -13 callgsubr
            -167 228 -135 282 -13 callsubr
            vhcurveto
            -350 -83 callsubr
            -16 -241 rmoveto
            -186 -39 -71 -100 -100 -39 71 186 186 39 71 100 100 39 -71 -186 vhcurveto
            return
          </CharString>
          <CharString index="1">
            1296 43 rmoveto
            -490 607 rlineto
            -572 -43 79 hlineto
            -88 callgsubr
            9 28 20 31 hvcurveto
            443 hlineto
            37 -46 rlineto
            20 -25 9 -20 -17 vvcurveto
            -28 -26 -15 -33 vhcurveto
            -74 -43 751 43 hlineto
            -482 hmoveto
            -455 564 rlineto
            77 hlineto
            455 -564 rlineto
            -684 199 rmoveto
            179 232 188 -232 rlineto
            return
          </CharString>
          <CharString index="2">
            hmoveto
            -106 callgsubr
            return
          </CharString>
          <CharString index="3">
            -40 17 -29 35 38 vvcurveto
            38 29 35 40 17 -59 callgsubr
            -21 -12 -30 -36 vvcurveto
            return
          </CharString>
          <CharString index="4">
            -73 callsubr
            -49 18 -34 34 36 vvcurveto
            36 34 34 49 18 -76 callsubr
            return
          </CharString>
          <CharString index="5">
            -80 -48 -28 -61 26 callgsubr
            1207 78 callgsubr
            hlineto
            -101 callsubr
            return
          </CharString>
          <CharString index="6">
            -39 callsubr
            -25 hlineto
            -80 -6 56 88 hvcurveto
            36 vlineto
            42 20 47 68 87 123 -42 -76 33 vhcurveto
            37 305 -37 hlineto
            -71 -33 -123 -56 -87 hhcurveto
            -78 -10 61 41 hvcurveto
            34 vlineto
            57 43 40 70 return
          </CharString>
          <CharString index="7">
            -191 -162 rmoveto
            -50 34 -70 63 -40 vhcurveto
            -1 -3 rlineto
            -86 33 -50 64 66 vvcurveto
            66 50 64 86 33 vhcurveto
            1 -3 rlineto
            -63 -40 -34 -70 -50 vvcurveto
            354 -1 rmoveto
            -58 -27 -50 -33 -25 vhcurveto
            -3 2 rlineto
            15 32 8 53 46 vvcurveto
            46 -8 53 -15 32 vhcurveto
            3 2 rlineto
            33 -25 27 -50 -58 vvcurveto
            return
          </CharString>
          <CharString index="8">
            -73 callgsubr
            -321 -99 callgsubr
            return
          </CharString>
          <CharString index="9">
            -114 -92 -57 -69 -69 92 -56 114 36 33 7 10 30 hvcurveto
            -95 -19 -169 -14 -79 hhcurveto
            -37 vlineto
            255 111 117 104 84 -71 75 -127 hvcurveto
            return
          </CharString>
          <CharString index="10">
            rmoveto
            -113 87 -92 146 -43 vhcurveto
            -2 -10 rlineto
            -186 44 -113 97 117 vvcurveto
            117 114 97 186 42 vhcurveto
            2 -9 rlineto
            return
          </CharString>
          <CharString index="11">
            -93 callgsubr
            113 337 -51 callsubr
            return
          </CharString>
          <CharString index="12">
            499 31 -37 callsubr
            -66 -63 rmoveto
            -63 -65 rlineto
            56 -33 -65 59 -90 hhcurveto
            -102 -81 -61 -76 -74 79 -60 99 117 75 76 40 36 hvcurveto
            559 620 rlineto
            55 43 -75 callgsubr
            -574 -43 69 hlineto
            73 -602 -74 callgsubr
            return
          </CharString>
          <CharString index="13">
            -97 callsubr
            -148 -44 -86 -90 -113 vvcurveto
            return
          </CharString>
          <CharString index="14">
            -590 399 6 callsubr
            -290 -61 callgsubr
            290 -74 callsubr
            return
          </CharString>
          <CharString index="15">
            694 -12 callsubr
            121 -71 callsubr
            -121 hlineto
            -60 -49 28 80 -14 callgsubr
            return
          </CharString>
          <CharString index="16">
            -101 callgsubr
            437 267 rmoveto
            -72 callsubr
            return
          </CharString>
          <CharString index="17">
            rmoveto
            -134 -146 rlineto
            297 hlineto
            104 112 103 -112 rlineto
            87 hlineto
            -133 146 rlineto
            return
          </CharString>
          <CharString index="18">
            -33 callgsubr
            -294 vlineto
            -66 -41 -23 -49 -62 callgsubr
            -40 callgsubr
            return
          </CharString>
          <CharString index="19">
            -69 callgsubr
            hintmask 1100010111110000
            6 callgsubr
            hintmask 1101000111110000
            -9 callgsubr
            hintmask 1100100111110000
            22 callgsubr
            76 callsubr
            -61 callsubr
            hintmask 1100100111110000
            21 callsubr
            hintmask 1101000111110000
            -57 callgsubr
            endchar
          </CharString>
          <CharString index="20">
            -81 -33 57 58 61 37 67 78 33 36 -1 -2 38 hvcurveto
            -219 vlineto
            -13 -38 -40 -8 -30 hhcurveto
            97 436 -34 callgsubr
            return
          </CharString>
          <CharString index="21">
            rmoveto
            -102 callgsubr
            return
          </CharString>
          <CharString index="22">
            106 -105 85 -168 -165 -106 -85 -106 -107 122 -85 149 151 122 85 107 vhcurveto
            -273 162 rmoveto
            66 17 -55 -108 -107 -31 -56 -52 -50 -31 56 107 108 17 55 64 hvcurveto
            return
          </CharString>
          <CharString index="23">
            -90 callsubr
            -210 -25 rmoveto
            return
          </CharString>
          <CharString index="24">
            243 rmoveto
            72 -62 40 -87 -94 vvcurveto
            -95 -41 -89 -72 -61 vhcurveto
            -4 3 rlineto
            32 80 16 80 82 vvcurveto
            81 -16 80 -31 79 vhcurveto
            return
          </CharString>
          <CharString index="25">
            31 callsubr
            -44 124 8 callgsubr
            -27 callgsubr
            hintmask 11011111
            -107 callsubr
            return
          </CharString>
          <CharString index="26">
            -89 callsubr
            -224 -89 12 callgsubr
            return
          </CharString>
          <CharString index="27">
            126 rmoveto
            -98 callsubr
            return
          </CharString>
          <CharString index="28">
            -45 -40 -68 -44 -72 hhcurveto
            -97 -12 74 48 hvcurveto
            333 -452 -43 -36 callgsubr
            -290 68 callgsubr
            92 -25 117 177 132 82 69 67 vhcurveto
            return
          </CharString>
          <CharString index="29">
            -156 -53 40 70 -50 hvcurveto
            -291 hlineto
            0 24 -99 124 -29 vhcurveto
            return
          </CharString>
          <CharString index="30">
            rmoveto
            -103 callsubr
            464 -99 callgsubr
            -348 -80 callsubr
            464 hmoveto
            -17 callsubr
          </CharString>
          <CharString index="31">
            vhcurveto
            3 -4 rlineto
            -22 -21 -15 -30 -33 vvcurveto
            return
          </CharString>
          <CharString index="32">
            -55 callsubr
            128 -119 29 -251 -14 callsubr
            vhcurveto
            return
          </CharString>
          <CharString index="33">
            vlineto
            51 -28 29 -42 15 vhcurveto
            587 7 6 callsubr
            -383 -51 383 vlineto
            51 -28 29 -42 15 vhcurveto
            return
          </CharString>
          <CharString index="34">
            -33 15 -30 22 37 callgsubr
            -4 rlineto
            return
          </CharString>
          <CharString index="35">
            95 -26 51 -57 -60 vvcurveto
            -61 -49 -61 -92 -28 vhcurveto
            -3 9 rlineto
            61 31 32 56 54 vvcurveto
            55 -33 52 -64 28 vhcurveto
            return
          </CharString>
          <CharString index="36">
            43 -851 -43 122 hlineto
            60 49 -1 callsubr
            -80 -49 -28 -34 callsubr
            return
          </CharString>
          <CharString index="37">
            -113 -92 -57 -69 -69 92 -56 113 113 92 56 69 return
          </CharString>
          <CharString index="38">
            rmoveto
            hintmask 1010100111110000
            70 callsubr
            76 callsubr
            -88 callsubr
          </CharString>
          <CharString index="39">
            rmoveto
            124 29 24 99 0 vvcurveto
            -291 hlineto
            return
          </CharString>
          <CharString index="40">
            1009 14 callsubr
            vlineto
            99 129 -24 -173 -23 -15 -4 -8 -18 -76 48 0 hvcurveto
            -348 219 rlineto
            -749 -43 hlineto
            164 52 callsubr
            -173 -182 -61 31 callgsubr
            61 173 hvcurveto
            46 vlineto
            56 25 14 25 25 25 -14 0 vhcurveto
            696 -421 rlineto
            90 452 hlineto
            173 129 24 99 vhcurveto
            43 vlineto
            -318 -615 rmoveto
            -855 517 rlineto
            55 27 vlineto
            828 -500 rlineto
            return
          </CharString>
          <CharString index="41">
            -64 callsubr
            9 callgsubr
          </CharString>
          <CharString index="42">
            127 -22 53 576 -24 callsubr
            186 14 callgsubr
            370 65 hintmask 11011110
            -100 callgsubr
            return
          </CharString>
          <CharString index="43">
            rmoveto
            133 146 rlineto
            -87 hlineto
            -103 -112 -104 112 rlineto
            -297 hlineto
            134 -146 rlineto
            52 25 rmoveto
            return
          </CharString>
          <CharString index="44">
            -51 154 138 -16 135 hhcurveto
            233 152 57 140 hvcurveto
            270 -598 -69 112 vvcurveto
            34 44 9 56 202 185 -103 -58 39 vhcurveto
            42 184 -43 hlineto
            -4 -11 -6 -13 -4 -12 rrcurveto
            26 -106 -184 27 -113 hhcurveto
            -155 -231 -10 -175 hvcurveto
            78 56 rmoveto
            9 -106 147 -54 157 -38 rrcurveto
            164 -40 162 -18 -118 vvcurveto
            -8 -1 -46 55 -61 20 -119 29 rlinecurve
            return
          </CharString>
          <CharString index="45">
            hstem
            186 14 callgsubr
            370 65 vstem
            -100 callgsubr
            return
          </CharString>
          <CharString index="46">
            -106 -45 36 -150 hhcurveto
            -148 -74 -112 -50 -4 hvcurveto
            28 hlineto
            return
          </CharString>
          <CharString index="47">
            -131 hhcurveto
            -199 -78 -101 -102 -104 75 -105 202 99 return
          </CharString>
          <CharString index="48">
            186 55 vhcurveto
            1 -4 rlineto
            -143 -56 -97 return
          </CharString>
          <CharString index="49">
            -43 66 hlineto
            -89 callsubr
            return
          </CharString>
          <CharString index="50">
            -87 0 43 564 -24 callsubr
            39 callgsubr
            hintmask 11011100
            -92 callsubr
            return
          </CharString>
          <CharString index="51">
            -74 callgsubr
            endchar
          </CharString>
          <CharString index="52">
            -52 -11 callsubr
            -40 callgsubr
            291 vlineto
            return
          </CharString>
          <CharString index="53">
            84 13 60 30 37 vvcurveto
            -140 -253 rmoveto
            22 25 6 28 24 vvcurveto
            23 -6 28 -22 25 60 callgsubr
            40 -20 27 -30 -29 vvcurveto
            -30 -28 -30 -39 -20 vhcurveto
            -21 192 rmoveto
            -3 3 rlineto
            18 20 9 19 21 vvcurveto
            20 -7 21 -20 25 60 callgsubr
            42 -19 22 -27 -25 vvcurveto
            -24 -21 -23 -43 -14 vhcurveto
            return
          </CharString>
          <CharString index="54">
            -252 154 -398 -398 -252 -154 return
          </CharString>
          <CharString index="55">
            rmoveto
            -273 250 rlineto
            -247 vlineto
            112 -104 -112 -103 rlineto
            -87 vlineto
            273 249 rlineto
            -235 64 rmoveto
            62 vlineto
            138 -127 -34 -31 rlineto
            return
          </CharString>
          <CharString index="56">
            rmoveto
            4 callsubr
            hvcurveto
            -105 20 hlineto
            170 31 87 86 vhcurveto
            return
          </CharString>
          <CharString index="57">
            45 457 rmoveto
            -146 154 -119 189 189 153 119 146 146 -153 119 -189 -189 -154 -119 -146 vhcurveto
            35 hmoveto
            124 139 107 169 169 138 -107 -124 -124 -138 -107 -169 -169 -139 107 124 vhcurveto
            return
          </CharString>
          <CharString index="58">
            rmoveto
            -104 -32 -115 -19 -172 -5 rrcurveto
            6 vlineto
            168 44 253 82 100 vvcurveto
            89 -167 17 -73 -106 -70 -25 -17 -37 vhcurveto
            26 -27 -154 27 vlineto
            69 13 80 73 83 hhcurveto
            16 57 -4 -78 -109 -203 -80 -92 -27 hvcurveto
            -41 496 132 -27 vlineto
            -161 214 rmoveto
            return
          </CharString>
          <CharString index="59">
            hstem
            911 515 rmoveto
            43 -811 -197 28 vlineto
            75 35 73 79 205 hhcurveto
            42 hlineto
            -411 -472 rlineto
            -22 -43 858 197 -28 hlineto
            -67 -65 -89 -87 -193 hhcurveto
            -54 hlineto
            412 472 rlineto
            -737 -472 rmoveto
            409 472 rlineto
            71 hlineto
            -409 -472 rlineto
            return
          </CharString>
          <CharString index="60">
            -52 callgsubr
            hlineto
            return
          </CharString>
          <CharString index="61">
            37 53 125 63 133 hhcurveto
            148 12 return
          </CharString>
          <CharString index="62">
            hstem
            39 callgsubr
            vstem
            -92 callsubr
            return
          </CharString>
          <CharString index="63">
            hvcurveto
            -364 -11 callsubr
            24 callgsubr
            291 vlineto
            110 -71 47 -167 return
          </CharString>
          <CharString index="64">
            -25 -113 -97 -195 hhcurveto
            -101 -48 56 117 -13 hvcurveto
            return
          </CharString>
          <CharString index="65">
            -75 -83 rlineto
            -62 hlineto
            75 83 rlineto
            return
          </CharString>
          <CharString index="66">
            rmoveto
            -65 564 65 hlineto
            return
          </CharString>
          <CharString index="67">
            -44 callsubr
            -119 -120 -52 -98 -108 vhcurveto
            return
          </CharString>
          <CharString index="68">
            -164 -122 -182 -5 -145 hhcurveto
            return
          </CharString>
          <CharString index="69">
            vhcurveto
            -3 -3 rlineto
            return
          </CharString>
          <CharString index="70">
            rmoveto
            -399 484 rlineto
            57 hlineto
            372 -452 rlineto
            return
          </CharString>
          <CharString index="71">
            -100 -55 -33 -60 -61 119 -240 36 38 118 240 61 vhcurveto
            -202 57 rmoveto
            -14 -11 -6 -14 -12 vvcurveto
            1 -38 return
          </CharString>
          <CharString index="72">
            rmoveto
            84 callsubr
            hlineto
            -33 callgsubr
            return
          </CharString>
          <CharString index="73">
            -60 vhcurveto
            -122 -43 851 43 return
          </CharString>
          <CharString index="74">
            vlineto
            -66 -41 -23 -49 vhcurveto
            -65 -43 672 43 -99 hlineto
            -44 -36 23 66 hvcurveto
            124 130 rmoveto
            -58 -49 42 22 -17 hvcurveto
            301 vlineto
            40 26 44 37 54 hhcurveto
            79 45 -71 -137 -136 -27 -98 -97 hvcurveto
            -349 -219 rmoveto
            -51 return
          </CharString>
          <CharString index="75">
            127 -68 callsubr
            hintmask 10111100
            -98 callgsubr
          </CharString>
          <CharString index="76">
            rmoveto
            121 31 23 97 0 vvcurveto
            -241 hlineto
            hintmask 01000000
            -70 -42 -45 -40 -102 hhcurveto
            hintmask 10000000
            -36 15 vlineto
            73 128 1 17 70 hvcurveto
            -158 25 -89 callgsubr
            return
          </CharString>
          <CharString index="77">
            -86 callsubr
            -84 callgsubr
            -196 hmoveto
            -36 12 -30 19 -21 -38 callsubr
            return
          </CharString>
          <CharString index="78">
            -1 -21 31 -21 317 66 288 -20 31 -20 38 -20 hstemhm
            20 -1 callgsubr
            -190 267 -187 110 37 -1 callgsubr
            -110 110 return
          </CharString>
          <CharString index="79">
            -400 252 -101 callgsubr
            endchar
          </CharString>
          <CharString index="80">
            29 -21 541 -20 hstem
            353 299 -52 callsubr
            return
          </CharString>
          <CharString index="81">
            hstem
            -45 callgsubr
            vstem
            return
          </CharString>
          <CharString index="82">
            -73 71 -57 86 88 71 57 73 vhcurveto
            -244 hmoveto
            -36 12 -32 19 -22 -38 callsubr
            -40 18 -28 37 38 vvcurveto
            38 28 37 40 18 -59 callgsubr
            -22 -12 -33 -35 vvcurveto
            endchar
          </CharString>
          <CharString index="83">
            43 -43 145 8 callgsubr
            return
          </CharString>
          <CharString index="84">
            30 callsubr
            -39 callgsubr
            return
          </CharString>
          <CharString index="85">
            -190 -281 -4 -219 hvcurveto
            877 -379 rmoveto
            -64 99 -109 1 -296 76 rrcurveto
            return
          </CharString>
          <CharString index="86">
            84 -35 89 -69 69 -25 61 -1 -20 hstemhm
            return
          </CharString>
          <CharString index="87">
            -97 callsubr
            -149 -44 -85 -91 -112 vvcurveto
            return
          </CharString>
          <CharString index="88">
            0 7 callsubr
            return
          </CharString>
          <CharString index="89">
            -50 163 125 -29 187 hhcurveto
            337 185 65 162 hvcurveto
            320 -735 -90 139 vvcurveto
            42 56 12 71 175 302 -121 -69 48 vhcurveto
            47 hlineto
            return
          </CharString>
          <CharString index="90">
            -98 callsubr
            endchar
          </CharString>
          <CharString index="91">
            159 21 callgsubr
            39 callsubr
            vstem
            692 -12 callsubr
            167 43 -895 40 callsubr
            -51 -59 hvcurveto
            return
          </CharString>
          <CharString index="92">
            rmoveto
            65 -519 hlineto
            -4 -61 0 122 hvcurveto
            return
          </CharString>
          <CharString index="93">
            -161 -134 -14 -39 -128 return
          </CharString>
          <CharString index="94">
            282 227 135 167 return
          </CharString>
          <CharString index="95">
            497 rmoveto
            59 49 51 60 vhcurveto
            return
          </CharString>
          <CharString index="96">
            -10 callgsubr
            vlineto
            return
          </CharString>
          <CharString index="97">
            19 callgsubr
            274 -16 callgsubr
            return
          </CharString>
          <CharString index="98">
            -8 callsubr
            222 return
          </CharString>
          <CharString index="99">
            77 callsubr
            55 68 234 return
          </CharString>
          <CharString index="100">
            36 vlineto
            -78 callsubr
            return
          </CharString>
          <CharString index="101">
            rmoveto
            -36 16 -33 24 66 callgsubr
            hintmask 11100000
            -54 20 -37 37 40 vvcurveto
            40 37 37 54 20 72 callsubr
            -24 -23 -16 -33 -36 vvcurveto
            endchar
          </CharString>
          <CharString index="102">
            rmoveto
            -135 -65 -82 -101 -57 vhcurveto
            -2 3 rlineto
            56 76 31 93 102 vvcurveto
            102 -31 93 -56 76 vhcurveto
            2 3 rlineto
            101 -57 65 -82 -135 vvcurveto
            endchar
          </CharString>
          <CharString index="103">
            -34 callsubr
            -121 hlineto
            -60 -49 return
          </CharString>
          <CharString index="104">
            270 5 callgsubr
            return
          </CharString>
          <CharString index="105">
            307 0 43 151 48 365 43 return
          </CharString>
          <CharString index="106">
            -51 23 callgsubr
            return
          </CharString>
          <CharString index="107">
            43 472 43 return
          </CharString>
          <CharString index="108">
            rmoveto
            2 callgsubr
          </CharString>
          <CharString index="109">
            61 24 58 -23 callgsubr
            -24 -107 -97 -188 hhcurveto
            return
          </CharString>
          <CharString index="110">
            -76 -24 -39 rcurveline
            -40 70 -63 157 42 vvcurveto
            25 18 19 37 9 vhcurveto
            return
          </CharString>
          <CharString index="111">
            73 39 -66 -68 -72 -44 -71 -80 return
          </CharString>
          <CharString index="112">
            247 135 -98 -87 65 return
          </CharString>
          <CharString index="113">
            24 callsubr
            -31 -58 vvcurveto
            return
          </CharString>
          <CharString index="114">
            43 564 43 return
          </CharString>
          <CharString index="115">
            29 -129 -230 34 -139 hhcurveto
            -22 callsubr
            return
          </CharString>
          <CharString index="116">
            vlineto
            -80 -48 -28 43 callgsubr
            1163 288 -34 hlineto
            -203 -143 -159 -42 -99 hhcurveto
            -86 -23 49 59 hvcurveto
            return
          </CharString>
          <CharString index="117">
            rmoveto
            -72 callsubr
            endchar
          </CharString>
          <CharString index="118">
            200 44 105 163 return
          </CharString>
          <CharString index="119">
            -321 hmoveto
            -34 14 -30 22 -23 vhcurveto
            -50 17 -35 33 37 vvcurveto
            37 35 33 50 17 vhcurveto
            -22 -22 -14 -30 -35 vvcurveto
            endchar
          </CharString>
          <CharString index="120">
            -188 rmoveto
            -19 51 87 -16 95 hhcurveto
            108 125 11 79 return
          </CharString>
          <CharString index="121">
            650 rmoveto
            -43 return
          </CharString>
          <CharString index="122">
            rmoveto
            36 callsubr
            -69 callgsubr
            return
          </CharString>
          <CharString index="123">
            121 386 rmoveto
            -221 619 -14 -93 vvcurveto
            -33 -71 -6 -61 -210 -189 99 122 -46 vhcurveto
            -43 hlineto
            return
          </CharString>
          <CharString index="124">
            31 -12 36 -31 -46 vvcurveto
            -92 -91 -22 0 vhcurveto
            -2 4 rlineto
            42 33 11 49 28 vvcurveto
            58 -30 28 0 vhcurveto
            endchar
          </CharString>
          <CharString index="125">
            255 -22 41 610 41 return
          </CharString>
          <CharString index="126">
            -20 hstemhm
            166 20 callsubr
            return
          </CharString>
          <CharString index="127">
            63 51 182 289 47 callgsubr
            return
          </CharString>
          <CharString index="128">
            22 9 24 15 29 hhcurveto
            return
          </CharString>
          <CharString index="129">
            hlineto
            -60 -49 28 80 hvcurveto
            return
          </CharString>
          <CharString index="130">
            -51 67 callsubr
            hlineto
            return
          </CharString>
          <CharString index="131">
            rmoveto
            70 -13 49 return
          </CharString>
          <CharString index="132">
            vvcurveto
            -49 -35 -21 -43 -53 -65 43 53 -21 vhcurveto
            -39 hlineto
            return
          </CharString>
          <CharString index="133">
            80 96 17 28 72 hvcurveto
            2 callsubr
            return
          </CharString>
          <CharString index="134">
            rmoveto
            402 -181 -402 -181 34 -71 478 222 rlineto
            60 vlineto
            -478 222 rlineto
            return
          </CharString>
          <CharString index="135">
            -65 249 vlineto
            -319 315 rlineto
            return
          </CharString>
          <CharString index="136">
            -351 0 43 472 -24 callsubr
            216 62 51 224 hintmask 10111100
            return
          </CharString>
          <CharString index="137">
            rmoveto
            -125 95 -84 110 -47 vhcurveto
            -1 -5 rlineto
            return
          </CharString>
          <CharString index="138">
            9 -22 44 514 44 return
          </CharString>
          <CharString index="139">
            65 258 return
          </CharString>
          <CharString index="140">
            402 -43 callgsubr
            214 519 rmoveto
            return
          </CharString>
          <CharString index="141">
            46 callsubr
            207 hmoveto
            53 callgsubr
            return
          </CharString>
          <CharString index="142">
            -46 20 -33 37 42 vvcurveto
            41 33 37 46 20 vhcurveto
            -21 -25 -12 -34 -39 vvcurveto
            endchar
          </CharString>
          <CharString index="143">
            -28 -33 -54 -18 -46 return
          </CharString>
          <CharString index="144">
            49 18 19 37 vhcurveto
            373 hlineto
            178 134 48 137 161 -205 return
          </CharString>
          <CharString index="145">
            196 -116 116 return
          </CharString>
          <CharString index="146">
            301 14 callgsubr
            return
          </CharString>
          <CharString index="147">
            73 callgsubr
            60 48 return
          </CharString>
          <CharString index="148">
            44 -47 37 -58 -58 -47 -37 -44 -44 47 -36 58 58 47 36 44 vhcurveto
            return
          </CharString>
          <CharString index="149">
            -21 251 -20 hstem
            return
          </CharString>
          <CharString index="150">
            -49 callgsubr
            vstem
            return
          </CharString>
          <CharString index="151">
            43 -66 hlineto
            return
          </CharString>
          <CharString index="152">
            rmoveto
            -99 -37 -34 -27 -11 vhcurveto
            684 vlineto
            99 37 34 27 11 vhcurveto
            return
          </CharString>
          <CharString index="153">
            -55 -22 -44 -26 -26 -22 44 55 vhcurveto
            return
          </CharString>
          <CharString index="154">
            51 callgsubr
            -279 -329 -94 -252 return
          </CharString>
          <CharString index="155">
            54 callgsubr
            -65 43 -7 callgsubr
            return
          </CharString>
          <CharString index="156">
            hstemhm
            96 61 -61 335 427 308 -189 189 return
          </CharString>
          <CharString index="157">
            -725 -74 -21 810 -20 hstem
            150 65 vstem
            215 return
          </CharString>
          <CharString index="158">
            41 1 -21 629 41 -20 -20 return
          </CharString>
          <CharString index="159">
            163 -88 -137 hvcurveto
            -105 vlineto
            return
          </CharString>
          <CharString index="160">
            51 52 77 38 53 hhcurveto
            48 18 return
          </CharString>
          <CharString index="161">
            311 -21 380 -20 return
          </CharString>
          <CharString index="162">
            63 68 240 return
          </CharString>
          <CharString index="163">
            720 -35 callsubr
            return
          </CharString>
          <CharString index="164">
            -20 27 -20 hstemhm
            171 38 callsubr
            return
          </CharString>
          <CharString index="165">
            30 -87 -107 31 -116 hhcurveto
            return
          </CharString>
          <CharString index="166">
            263 -20 hstemhm
            return
          </CharString>
          <CharString index="167">
            -43 120 return
          </CharString>
          <CharString index="168">
            vlineto
            28 22 23 28 vhcurveto
            101 hlineto
            55 109 return
          </CharString>
          <CharString index="169">
            -440 645 -21 36 -20 130 -20 hstemhm
            return
          </CharString>
          <CharString index="170">
            510 43 -21 -20 hstemhm
            50 63 68 258 return
          </CharString>
          <CharString index="171">
            80 230 -20 hstem
            330 80 vstem
            330 return
          </CharString>
          <CharString index="172">
            rmoveto
            -46 callgsubr
          </CharString>
          <CharString index="173">
            67 65 213 vstem
            return
          </CharString>
          <CharString index="174">
            472 51 return
          </CharString>
          <CharString index="175">
            rmoveto
            3 -98 165 -62 166 -38 rrcurveto
            return
          </CharString>
          <CharString index="176">
            rmoveto
            -62 -22 42 60 hvcurveto
            return
          </CharString>
          <CharString index="177">
            36 callsubr
            hhcurveto
            return
          </CharString>
          <CharString index="178">
            -200 43 135 84 return
          </CharString>
          <CharString index="179">
            vhcurveto
            3 -5 rlineto
            return
          </CharString>
          <CharString index="180">
            -89 rmoveto
            -51 return
          </CharString>
          <CharString index="181">
            314 -21 394 -20 hstem
            50 52 return
          </CharString>
          <CharString index="182">
            -66 -41 -22 -49 vhcurveto
            -106 -43 533 return
          </CharString>
          <CharString index="183">
            hintmask 1101001011110000
            return
          </CharString>
          <CharString index="184">
            -20 hstemhm
            60 return
          </CharString>
          <CharString index="185">
            164 43 return
          </CharString>
          <CharString index="186">
            43 hstem
            303 67 66 258 return
          </CharString>
          <CharString index="187">
            234 54 callgsubr
            return
          </CharString>
          <CharString index="188">
            2 -21 534 43 return
          </CharString>
          <CharString index="189">
            -34 -30 -24 -10 vhcurveto
            return
          </CharString>
          <CharString index="190">
            -80 -49 -28 -60 vhcurveto
            return
          </CharString>
          <CharString index="191">
            -493 -43 66 return
          </CharString>
        <CharString name=".notdef">
          -325 endchar
        </CharString>
        <CharString name="A">
          -2 callsubr
          hstem
          -106 callsubr
          endchar
        </CharString>
        <CharString name="AE">
          743 5 callgsubr
          hstem
          775 67 0 66 0 256 vstem
          234 14 callsubr
          79 vlineto
          -88 callgsubr
          6 30 23 29 hvcurveto
          92 118 rlineto
          400 -161 hlineto
          -102 callsubr
          5 callsubr
          vhcurveto
          77 callgsubr
          hlineto
          -1087 -43 rmoveto
          81 28 -41 -59 hvcurveto
          -135 -354 vlineto
          183 235 rlineto
          304 -564 81 callgsubr
        </CharString>
        <CharString name="Aacute">
          -71 callgsubr
          17 492 -68 callsubr
          hintmask 11011000
          -98 callgsubr
        </CharString>
        <CharString name="Acircumflex">
          -2 callsubr
          66 146 hstem
          -106 callsubr
          -326 620 -66 callgsubr
        </CharString>
        <CharString name="Adieresis">
          -2 callsubr
          263 -20 hstem
          213 40 callgsubr
          vstem
          -106 callsubr
          255 556 rmoveto
          63 -61 52 -77 -75 -61 -52 -63 -63 61 -50 75 77 61 50 63 vhcurveto
          -105 callgsubr
          endchar
        </CharString>
        <CharString name="Agrave">
          -71 callgsubr
          -237 492 -47 callsubr
          hintmask 11011000
          -85 callgsubr
        </CharString>
        <CharString name="Aring">
          64 callgsubr
          92 -31 -20 282 -20 hstemhm
          421 109 96 111 hintmask 11100111
          -106 callsubr
          -158 556 46 callgsubr
          vhcurveto
          hintmask 11010111
          34 callsubr
          vhcurveto
          hintmask 11001111
          -25 callsubr
        </CharString>
        <CharString name="Atilde">
          64 callgsubr
          132 63 callgsubr
          hintmask 1110100100000000
          -106 callsubr
          138 543 rmoveto
          hintmask 1101010010000000
          70 callsubr
          hintmask 1110100100000000
          -69 callgsubr
          hintmask 1110001010000000
          6 callgsubr
          hintmask 1110100010000000
          -9 callgsubr
          hintmask 1110010010000000
          22 callgsubr
          hintmask 1110100100000000
          -61 callsubr
          hintmask 1110010010000000
          21 callsubr
          hintmask 1110100010000000
          -57 callgsubr
          endchar
        </CharString>
        <CharString name="B">
          391 -19 callsubr
          hstemhm
          39 callsubr
          288 81 -43 84 30 230 -190 190 -190 249 hintmask 1111101000000000
          1362 505 rmoveto
          129 -148 16 -179 vhcurveto
          -962 40 callsubr
          -1 callsubr
          -79 -48 -29 43 callgsubr
          1041 hlineto
          hintmask 1111100010000000
          116 191 32 143 123 -148 39 -45 8 hvcurveto
          5 vlineto
          hintmask 1111011000000000
          36 13 98 44 98 vvcurveto
          -586 -462 69 callsubr
          179 164 vlineto
          92 70 -41 -99 -108 -84 -33 -67 hvcurveto
          -175 465 rmoveto
          59 44 39 74 vhcurveto
          hintmask 1111101000000000
          109 61 -44 -78 -86 -72 -36 -59 hvcurveto
          -157 hlineto
          -258 -319 -41 callsubr
          587 -239 rmoveto
          26 32 14 34 44 vvcurveto
          45 -15 34 -25 31 60 callgsubr
          62 -18 46 -41 -54 vvcurveto
          -54 -47 -40 -61 -20 vhcurveto
          17 -313 rmoveto
          hintmask 1111010100000000
          37 32 24 44 57 vvcurveto
          59 -25 44 -37 32 vhcurveto
          3 4 rlineto
          75 -24 54 -50 -65 vvcurveto
          -63 -54 -50 -75 -24 vhcurveto
          endchar
        </CharString>
        <CharString name="C">
          7 -22 42 -42 165 487 74 callgsubr
          hintmask 01101100
          980 42 rmoveto
          36 callgsubr
          hintmask 10011100
          -10 callsubr
          hintmask 10101100
          47 callsubr
          -248 300 -102 344 151 96 31 33 67 hvcurveto
          -828 278 -23 callsubr
          endchar
        </CharString>
        <CharString name="Ccedilla">
          7 -223 48 153 42 610 74 callgsubr
          97 210 -100 100 hintmask 11011110
          315 13 callsubr
          49 -42 37 -64 25 hvcurveto
          146 2 93 29 66 33 rrcurveto
          36 callgsubr
          -10 callsubr
          hintmask 11101110
          47 callsubr
          -206 206 -105 266 -30 hvcurveto
          51 -18 26 -32 -42 25 callsubr
          -163 399 -23 callsubr
          437 -344 rmoveto
          hintmask 11101101
          -32 callgsubr
        </CharString>
        <CharString name="D">
          379 21 callgsubr
          299 67 65 257 342 89 81 246 vstem
          70 14 callsubr
          120 vlineto
          60 49 -50 -59 hvcurveto
          -346 16 callgsubr
          -402 -607 -41 callsubr
          341 -564 69 callsubr
          363 35 callgsubr
          337 281 -5 callsubr
        </CharString>
        <CharString name="Delta">
          90 0 43 583 175 hstem
          416 801 rmoveto
          -366 -758 rlineto
          -43 1080 43 vlineto
          -420 758 rlineto
          -589 -758 rmoveto
          283 582 322 -582 rlineto
          68 hmoveto
          -323 583 rlineto
          82 hlineto
          323 -583 rlineto
          endchar
        </CharString>
        <CharString name="E">
          -3 callsubr
          hstem
          302 67 66 256 vstem
          -103 callgsubr
          endchar
        </CharString>
        <CharString name="Eacute">
          -3 callsubr
          -45 147 8 callgsubr
          302 67 66 256 hintmask 11101110
          -103 callgsubr
          372 127 -68 callsubr
          hintmask 11011110
          -98 callgsubr
        </CharString>
        <CharString name="Ecircumflex">
          -3 callsubr
          66 146 hstem
          302 67 66 256 vstem
          -103 callgsubr
          169 255 -66 callgsubr
        </CharString>
        <CharString name="Edieresis">
          -3 callsubr
          59 callsubr
          302 67 16 274 -224 256 150 274 hintmask 11111011
          -103 callgsubr
          680 191 -86 callsubr
          hintmask 11111101
          -105 callgsubr
          endchar
        </CharString>
        <CharString name="Egrave">
          -3 callsubr
          -45 147 8 callgsubr
          302 67 66 256 hintmask 11101110
          -103 callgsubr
          118 127 -47 callsubr
          hintmask 11011110
          -85 callgsubr
        </CharString>
        <CharString name="Eth">
          379 0 43 242 80 241 44 hstem
          299 67 65 257 342 89 81 246 vstem
          70 14 callsubr
          120 vlineto
          60 49 -50 -59 hvcurveto
          -133 -151 -80 151 -133 16 callgsubr
          -61 -607 69 callsubr
          140 188 80 -188 143 35 callgsubr
          -432 hmoveto
          -65 564 65 hlineto
          769 -283 -5 callsubr
        </CharString>
        <CharString name="Euro">
          83 -22 42 -42 165 97 50 78 50 208 44 hstemhm
          157 71 0 322 hintmask 01111010
          874 240 rmoveto
          50 -324 78 324 50 -324 63 -16 callgsubr
          51 callgsubr
          -243 -280 -69 -183 -69 hvcurveto
          -114 -50 101 hlineto
          -2 -13 -1 -13 -14 vvcurveto
          -13 1 -13 1 -12 vhcurveto
          -100 -50 112 hlineto
          -185 63 267 -77 300 hhcurveto
          151 96 31 33 67 hvcurveto
          36 callgsubr
          hintmask 10111010
          19 callgsubr
          29 vlineto
          -322 80 30 callsubr
          hintmask 10111100
          -39 callgsubr
          endchar
        </CharString>
        <CharString name="F">
          145 0 43 270 59 234 44 hstem
          39 callsubr
          vstem
          910 43 rmoveto
          -100 hlineto
          -85 -33 11 93 hvcurveto
          76 vlineto
          43 19 47 68 86 63 -23 -77 33 vhcurveto
          37 250 -37 hlineto
          -49 -33 -63 -42 -86 hhcurveto
          -78 -9 62 40 hvcurveto
          34 vlineto
          57 41 41 71 246 68 -78 -65 62 vhcurveto
          28 187 -1135 40 callsubr
          -50 -60 hvcurveto
          -345 vlineto
          -80 -48 -29 43 callgsubr
          837 hlineto
          -476 43 29 callgsubr
        </CharString>
        <CharString name="G">
          282 -23 44 0 -21 348 43 238 45 -24 -20 hstemhm
          22 63 74 315 358 67 65 249 hintmask 1011011110000000
          603 391 rmoveto
          -43 115 vlineto
          56 58 -43 -58 hvcurveto
          -72 vlineto
          -131 -101 -23 -62 -161 -34 91 91 vhcurveto
          279 vlineto
          106 93 41 117 175 161 -100 -90 59 vhcurveto
          48 hlineto
          hintmask 1010111110000000
          211 -48 -43 vlineto
          hintmask 1011011110000000
          43 -144 -165 24 -140 hhcurveto
          -323 -285 -76 -270 -254 283 -97 361 hvcurveto
          246 108 86 74 hhcurveto
          hintmask 0111011110000000
          47 24 -27 -36 hvcurveto
          48 348 190 43 hlineto
          -1103 -324 rmoveto
          -125 41 -90 105 122 vvcurveto
          122 90 103 124 41 vhcurveto
          2 -5 rlineto
          -83 -48 -59 -99 -114 vvcurveto
          -115 59 -100 83 -49 vhcurveto
          663 144 rmoveto
          -79 -27 -65 -23 -10 -5 14 64 vhcurveto
          197 65 vlineto
          endchar
        </CharString>
        <CharString name="H">
          621 0 43 275 53 236 43 hstem
          39 callsubr
          320 69 65 256 vstem
          1402 497 rmoveto
          59 50 51 59 vhcurveto
          121 43 -755 -43 hlineto
          110 25 -42 -57 hvcurveto
          -137 -320 137 vlineto
          57 25 42 110 vhcurveto
          43 -754 60 callsubr
          vlineto
          60 48 -1 callsubr
          -80 -48 -28 43 callgsubr
          754 43 hlineto
          -132 -3 38 55 hvcurveto
          138 vlineto
          21 10 23 32 vhcurveto
          236 hlineto
          33 9 -23 -21 hvcurveto
          -135 vlineto
          -56 -3 -40 -132 vhcurveto
          -43 755 43 -121 vlineto
          -59 -50 28 80 hvcurveto
          -968 -108 -41 callsubr
          712 -564 29 callgsubr
        </CharString>
        <CharString name="I">
          -87 0 43 564 43 -45 callsubr
          endchar
        </CharString>
        <CharString name="Iacute">
          -57 callsubr
          192 -32 callsubr
        </CharString>
        <CharString name="Icircumflex">
          -87 -19 callsubr
          66 146 -45 callsubr
          -96 255 -66 callgsubr
        </CharString>
        <CharString name="Idieresis">
          -87 -19 callsubr
          59 callsubr
          136 274 -106 67 32 callsubr
          -102 274 hintmask 11101100
          -92 callsubr
          hintmask 11110010
          430 191 rmoveto
          63 -61 52 -77 -75 -61 -52 -63 -63 61 -50 75 77 61 50 63 vhcurveto
          -105 callgsubr
          endchar
        </CharString>
        <CharString name="Igrave">
          -57 callsubr
          -62 127 -47 callsubr
          hintmask 10111100
          -85 callgsubr
        </CharString>
        <CharString name="J">
          -2 -22 43 0 -21 607 43 hstemhm
          477 67 64 259 hintmask 01111000
          608 208 rmoveto
          -99 -37 -34 -27 -11 vhcurveto
          543 64 vlineto
          -361 43 rmoveto
          -43 121 vlineto
          69 40 -51 -59 hvcurveto
          -368 vlineto
          -80 -50 -28 -59 -227 -106 241 0 vhcurveto
          -49 -262 49 51 hlineto
          hintmask 10111000
          -18 46 153 -55 200 52 callgsubr
          301 vlineto
          59 39 51 70 vhcurveto
          99 43 hlineto
          endchar
        </CharString>
        <CharString name="K">
          565 0 43 253 49 262 43 hstem
          301 68 0 65 0 258 vstem
          873 hmoveto
          43 -72 vlineto
          -60 -49 29 79 hvcurveto
          101 vlineto
          21 9 23 33 vhcurveto
          79 hlineto
          264 -296 rlineto
          556 43 -134 hlineto
          -298 354 rlineto
          -11 13 -4 12 11 vvcurveto
          20 15 16 15 9 vhcurveto
          14 24 203 115 83 hhcurveto
          107 43 -592 -43 hlineto
          102 38 -8 -36 -36 -36 -29 -84 -38 hvcurveto
          -197 -89 rlineto
          -16 -35 -23 -10 -36 hhcurveto
          -20 hlineto
          -50 -8 31 27 hvcurveto
          106 vlineto
          57 42 41 70 vhcurveto
          111 43 -842 40 callsubr
          -50 -59 hvcurveto
          -347 vlineto
          -79 -48 -29 43 callgsubr
          hlineto
          361 43 -41 callsubr
          779 -564 rmoveto
          -87 hlineto
          -251 281 rlineto
          87 hlineto
          endchar
        </CharString>
        <CharString name="L">
          -16 callsubr
          -346 9 callsubr
          -258 -108 29 callgsubr
        </CharString>
        <CharString name="Lslash">
          -16 callsubr
          -200 vlineto
          -150 -48 rlineto
          -80 vlineto
          150 48 rlineto
          -66 9 callsubr
          192 vlineto
          184 60 rlineto
          80 vlineto
          -184 -60 rlineto
          -258 -380 29 callgsubr
        </CharString>
        <CharString name="M">
          768 21 callgsubr
          350 65 744 67 32 callsubr
          vstem
          1226 607 rmoveto
          65 -564 -65 hlineto
          599 564 rmoveto
          43 -681 vlineto
          -168 -261 -307 261 rlineto
          -647 -43 hlineto
          165 52 callsubr
          -172 -182 -62 31 callgsubr
          62 172 hvcurveto
          134 vlineto
          386 -326 rlineto
          52 hlineto
          306 474 rlineto
          -408 vlineto
          -80 -49 -28 43 callgsubr
          895 43 -167 22 callsubr
          375 vlineto
          59 49 22 60 vhcurveto
          -822 -438 rmoveto
          -25 hlineto
          -515 436 rlineto
          100 hlineto
          440 -373 rlineto
          endchar
        </CharString>
        <CharString name="N">
          454 -21 -21 42 7 callsubr
          hstem
          350 65 822 64 vstem
          -67 callsubr
          endchar
        </CharString>
        <CharString name="Ntilde">
          471 -21 -21 42 7 callsubr
          55 -21 callsubr
          350 65 822 64 hintmask 1111001011000000
          -67 callsubr
          -183 678 15 callsubr
          hintmask 1110010111000000
          6 callgsubr
          hintmask 1111000111000000
          -9 callgsubr
          hintmask 1110100111000000
          22 callgsubr
          hintmask 1111001011000000
          -61 callsubr
          hintmask 1110100111000000
          21 callsubr
          hintmask 1111000111000000
          -57 callgsubr
          endchar
        </CharString>
        <CharString name="O">
          18 callsubr
          -80 callgsubr
          endchar
        </CharString>
        <CharString name="OE">
          848 0 43 269 60 235 43 hstem
          22 54 73 316 415 67 66 256 vstem
          672 43 rmoveto
          -130 -77 96 186 185 44 97 163 hvcurveto
          99 hlineto
          61 48 -1 callsubr
          -80 -48 -28 -61 vhcurveto
          1087 -43 rmoveto
          78 callgsubr
          vlineto
          -101 callsubr
          5 callsubr
          vhcurveto
          77 callgsubr
          -1186 hlineto
          -398 -252 -145 -179 -180 291 -146 359 hvcurveto
          -288 60 rmoveto
          -184 56 -124 86 7 callgsubr
          126 87 -59 callsubr
          -86 -120 vvcurveto
          -120 95 -85 141 -56 vhcurveto
          628 -21 81 callgsubr
        </CharString>
        <CharString name="Oacute">
          -83 callgsubr
          -236 409 -68 callsubr
          hintmask 10111111
          -98 callgsubr
        </CharString>
        <CharString name="Ocircumflex">
          18 callsubr
          46 146 -80 callgsubr
          -524 537 -66 callgsubr
        </CharString>
        <CharString name="Odieresis">
          18 callsubr
          243 -20 hstemhm
          22 54 -54 322 -195 316 -158 40 callgsubr
          -158 81 75 287 hintmask 1111010011000000
          -107 callgsubr
          hintmask 1111001100000000
          2 473 -67 callgsubr
        </CharString>
        <CharString name="Ograve">
          -83 callgsubr
          -490 409 -47 callsubr
          hintmask 10111111
          -85 callgsubr
        </CharString>
        <CharString name="Omega">
          255 0 43 717 41 -26 callsubr
          384 171 -104 callgsubr
          -1013 hmoveto
          -162 191 -152 330 -29 vhcurveto
          -49 -17 -21 -51 vhcurveto
          -47 hlineto
          -110 -130 27 116 -85 hvcurveto
          -29 -186 531 163 hlineto
          -110 25 -30 175 92 vvcurveto
          11 callsubr
          78 callsubr
          -105 -200 -92 -30 -175 -110 -25 vhcurveto
          -163 531 186 -29 vlineto
          -116 -85 -130 -27 -110 hhcurveto
          -47 hlineto
          -51 -17 21 49 hvcurveto
          330 29 191 152 162 vvcurveto
          -60 callgsubr
          vhcurveto
          endchar
        </CharString>
        <CharString name="Oslash">
          255 -68 -21 67 41 610 41 71 -20 -26 callsubr
          501 -89 rmoveto
          35 75 rlineto
          -5 44 45 -3 47 hhcurveto
          -12 callgsubr
          159 -176 134 -290 40 hvcurveto
          39 83 rlineto
          -52 hlineto
          -37 -78 rlineto
          4 -43 -44 3 -47 hhcurveto
          -398 -252 -154 -191 -158 196 -133 269 -42 hvcurveto
          -38 -81 rlineto
          223 718 rmoveto
          44 35 -8 -15 28 hvcurveto
          -249 -524 rlineto
          -42 51 -23 81 110 vvcurveto
          11 callsubr
          vhcurveto
          207 -305 rmoveto
          -201 -76 -104 -131 -41 -35 10 20 -30 vhcurveto
          251 528 rlineto
          47 -50 15 -85 -118 vvcurveto
          -495 -284 -56 callgsubr
        </CharString>
        <CharString name="Otilde">
          18 callsubr
          -41 110 63 callgsubr
          -45 callgsubr
          76 callsubr
          -107 callgsubr
          -115 460 -69 callsubr
        </CharString>
        <CharString name="P">
          357 0 43 241 45 278 79 callsubr
          316 78 69 277 vstem
          73 14 callsubr
          121 vlineto
          61 48 -1 callsubr
          -79 -48 -29 -61 vhcurveto
          -121 -43 851 43 -122 hlineto
          -60 -48 29 79 hvcurveto
          65 vlineto
          37 callsubr
          20 -147 hvcurveto
          -646 -607 0 callgsubr
          309 -278 rmoveto
          -28 -22 23 27 hvcurveto
          177 61 callsubr
          -36 -22 callgsubr
          endchar
        </CharString>
        <CharString name="Q">
          255 -207 43 143 41 609 42 -26 callsubr
          1322 325 rmoveto
          192 -53 callsubr
          -192 -186 273 -150 343 -10 vhcurveto
          -4 vlineto
          -86 -31 -95 -45 -30 -63 rrcurveto
          -43 489 43 -157 vlineto
          -25 -13 25 33 28 9 32 21 27 hvcurveto
          321 21 250 146 177 vvcurveto
          -857 hmoveto
          200 44 104 163 78 callsubr
          -104 -54 callgsubr
          vhcurveto
          192 -367 rmoveto
          -20 -17 -79 -69 -36 vvcurveto
          -61 hlineto
          38 110 69 48 18 vhcurveto
          -271 79 -56 callgsubr
        </CharString>
        <CharString name="R">
          495 0 43 253 53 258 79 callsubr
          332 93 69 311 vstem
          1453 43 rmoveto
          -134 172 -97 15 -74 37 -28 24 rlinecurve
          5 vlineto
          171 4 208 21 148 vvcurveto
          162 -204 19 -148 vhcurveto
          -1074 -43 121 hlineto
          61 48 -50 -60 hvcurveto
          -345 vlineto
          -80 -48 -29 -61 vhcurveto
          -121 -43 804 43 -75 hlineto
          -60 -48 29 80 hvcurveto
          75 vlineto
          48 1 23 28 23 32 -42 0 vhcurveto
          200 -256 rlineto
          593 43 hlineto
          -876 513 rmoveto
          28 22 23 28 vhcurveto
          117 hlineto
          55 109 -36 -103 -88 -86 -31 -84 -82 -79 29 35 hvcurveto
          -259 -370 0 callgsubr
          588 -564 rmoveto
          -198 255 rlineto
          83 hlineto
          198 -255 rlineto
          -17 296 rmoveto
          23 36 6 46 47 vvcurveto
          50 -5 43 -25 37 60 callgsubr
          56 -16 40 -53 -64 vvcurveto
          -63 -40 -54 -55 -15 vhcurveto
          endchar
        </CharString>
        <CharString name="S">
          171 -21 51 callsubr
          49 callsubr
          hintmask 10100110
          17 callgsubr
          hintmask 01101010
          -281 47 vlineto
          28 58 rlineto
          hintmask 10100101
          -18 callsubr
          hintmask 10011010
          211 -47 vlineto
          -18 -43 rlineto
          hintmask 10100110
          8 callsubr
          hintmask 10101001
          -53 callgsubr
          endchar
        </CharString>
        <CharString name="Scaron">
          171 -21 51 callsubr
          86 146 49 callsubr
          hintmask 1010101100000000
          17 callgsubr
          hintmask 0110110100000000
          -281 47 vlineto
          28 58 rlineto
          hintmask 1010101010000000
          -18 callsubr
          hintmask 1001110100000000
          211 -47 vlineto
          -18 -43 rlineto
          hintmask 1010101100000000
          8 callsubr
          hintmask 1010110010000000
          -53 callgsubr
          -199 647 -64 callsubr
          hintmask 1010101100000000
          9 callgsubr
        </CharString>
        <CharString name="T">
          14 0 43 563 44 hstemhm
          66 358 -68 14 callgsubr
          hintmask 11101000
          785 606 rmoveto
          61 171 -241 0 hvcurveto
          38 285 -989 -285 20 hlineto
          0 172 241 61 vhcurveto
          hintmask 11011000
          27 10 -19 -30 hvcurveto
          -405 vlineto
          -80 -48 -29 -60 vhcurveto
          -121 -43 850 43 -121 hlineto
          -60 -49 29 80 hvcurveto
          405 vlineto
          30 11 19 27 vhcurveto
          -296 -563 29 callgsubr
        </CharString>
        <CharString name="Thorn">
          357 0 43 99 45 277 45 98 43 hstem
          39 callgsubr
          315 78 69 277 vstem
          744 187 rmoveto
          -28 -22 23 27 hvcurveto
          176 61 callsubr
          -35 -22 callgsubr
          -463 61 callgsubr
          231 -71 callsubr
          -231 31 hlineto
          37 callsubr
          21 -147 hvcurveto
          -333 hlineto
          -37 -18 19 49 hvcurveto
          -257 -534 29 callgsubr
        </CharString>
        <CharString name="U">
          59 callgsubr
          -62 callsubr
          -958 -43 -15 callsubr
          endchar
        </CharString>
        <CharString name="Uacute">
          -65 callsubr
          -437 84 -68 callsubr
          hintmask 10111110
          3 callgsubr
          -521 -127 -15 callsubr
          317 549 38 callgsubr
        </CharString>
        <CharString name="Ucircumflex">
          59 callgsubr
          66 146 -62 callsubr
          -720 212 -90 callsubr
          -562 -255 -15 callsubr
          352 627 65 callsubr
        </CharString>
        <CharString name="Udieresis">
          59 callgsubr
          59 callsubr
          186 68 45 278 -258 258 178 274 -82 65 hintmask 11111001
          -100 callgsubr
          -639 148 -86 callsubr
          hintmask 11110110
          456 -86 callgsubr
          -775 -191 -15 callsubr
          123 588 rmoveto
          -106 callgsubr
          456 -105 callsubr
          endchar
        </CharString>
        <CharString name="Ugrave">
          -65 callsubr
          -721 84 -47 callsubr
          hintmask 10111110
          -7 callsubr
          -237 -127 -15 callsubr
          327 545 -77 callgsubr
          endchar
        </CharString>
        <CharString name="V">
          169 -2 -21 630 43 hstem
          1273 650 rmoveto
          -518 -43 50 hlineto
          105 71 -66 -67 -25 -9 -25 -21 -22 hvcurveto
          -130 -142 10 callgsubr
          568 630 rlineto
          51 hlineto
          -594 -538 rmoveto
          -44 -48 -525 586 rlineto
          87 hlineto
          endchar
        </CharString>
        <CharString name="W">
          938 -2 -21 630 43 hstem
          1459 607 rmoveto
          43 -704 -43 67 vlineto
          156 -174 -157 -173 10 callgsubr
          367 406 366 -406 rlineto
          36 hlineto
          569 630 rlineto
          49 43 -517 -43 49 hlineto
          106 71 -65 -68 -25 -9 -25 -21 -22 hvcurveto
          -131 -142 -185 20 callgsubr
          -27 -586 rmoveto
          -527 586 rlineto
          88 hlineto
          482 -538 rlineto
          -812 -48 rmoveto
          -526 586 rlineto
          87 hlineto
          482 -538 rlineto
          endchar
        </CharString>
        <CharString name="X">
          283 -19 callsubr
          -1 -20 hstemhm
          hintmask 11000000
          1282 43 rmoveto
          -61 -76 28 80 -78 hvcurveto
          -218 225 230 149 rlineto
          23 36 95 59 84 hhcurveto
          33 hlineto
          hintmask 10100000
          42 -486 vlineto
          hintmask 11000000
          -42 19 vlineto
          33 27 -24 -37 -28 -22 -35 -65 -44 hvcurveto
          -28 -19 -75 77 rlineto
          -29 29 -14 26 20 vvcurveto
          20 15 15 31 vhcurveto
          18 43 -687 -43 61 hlineto
          60 97 -51 -59 58 hvcurveto
          195 -201 -272 -175 rlineto
          -23 -36 -96 -55 -84 hhcurveto
          -34 -43 563 43 -95 hlineto
          -33 -27 22 37 28 21 36 66 43 hvcurveto
          69 45 100 -103 rlineto
          35 -37 15 -25 -17 vvcurveto
          -20 -21 -9 -32 vhcurveto
          -40 -43 726 43 hlineto
          -510 hmoveto
          -549 564 rlineto
          65 hlineto
          548 -564 rlineto
          endchar
        </CharString>
        <CharString name="Y">
          219 21 callgsubr
          427 14 callgsubr
          vstem
          -87 callgsubr
          endchar
        </CharString>
        <CharString name="Yacute">
          219 0 43 564 -24 callsubr
          427 14 callgsubr
          hintmask 11011100
          -87 callgsubr
          573 -32 callsubr
        </CharString>
        <CharString name="Ydieresis">
          219 -19 callsubr
          59 callsubr
          289 274 -136 14 callgsubr
          -73 274 hintmask 11101100
          -87 callgsubr
          hintmask 11110010
          764 191 rmoveto
          63 -61 52 -77 -75 -61 -52 -63 -63 61 -50 75 77 61 50 63 vhcurveto
          -105 callgsubr
          endchar
        </CharString>
        <CharString name="Z">
          83 21 callgsubr
          1119 607 rmoveto
          43 -1007 -226 29 vlineto
          65 65 121 118 242 hhcurveto
          57 hlineto
          -549 -564 rlineto
          -23 -43 1050 226 -29 hlineto
          -72 -60 -102 -111 -247 hhcurveto
          -118 hlineto
          550 564 rlineto
          -932 -564 rmoveto
          546 564 rlineto
          93 hlineto
          -548 -564 rlineto
          endchar
        </CharString>
        <CharString name="Zcaron">
          83 -19 callsubr
          66 146 hstem
          1098 607 rmoveto
          -550 -564 rlineto
          118 hlineto
          247 102 111 72 60 hvcurveto
          29 -226 -1050 43 23 hlineto
          549 564 rlineto
          -57 hlineto
          -242 -121 -118 -65 -65 hvcurveto
          -29 226 1007 -43 hlineto
          -862 -564 rmoveto
          548 564 rlineto
          -93 hlineto
          -546 -564 rlineto
          638 673 -66 callsubr
        </CharString>
        <CharString name="a">
          -42 callgsubr
          -1 25 callgsubr
          hintmask 1011011110000000
          -91 callgsubr
          hintmask 0111011110000000
          -75 callsubr
          hintmask 1010111110000000
          -38 callgsubr
          hlineto
          404 -333 rmoveto
          -87 callsubr
          hintmask 0111011110000000
          -94 callgsubr
          endchar
        </CharString>
        <CharString name="aacute">
          -72 callgsubr
          583 217 -68 callsubr
          hintmask 1010101111100000
          3 callgsubr
          -179 -550 -79 callgsubr
          137 653 38 callgsubr
        </CharString>
        <CharString name="acircumflex">
          -42 callgsubr
          -1 -20 65 146 -108 25 callgsubr
          hintmask 1011010111100000
          -91 callgsubr
          hintmask 0111010111100000
          -75 callsubr
          hintmask 1010110111100000
          -38 callgsubr
          hlineto
          295 345 -90 callsubr
          -215 -678 -79 callgsubr
          167 731 65 callsubr
        </CharString>
        <CharString name="acute">
          62 callsubr
          hintmask 01100000
          452 34 callgsubr
          hintmask 10100000
          -97 callgsubr
          endchar
        </CharString>
        <CharString name="adieresis">
          -42 callgsubr
          -1 -20 262 -8 callsubr
          -199 274 147 62 -27 274 -196 196 -196 224 hintmask 1011011101010000
          -91 callgsubr
          hintmask 0111011101001000
          -75 callsubr
          hintmask 1010111010100000
          -38 callgsubr
          hlineto
          365 281 -86 callsubr
          456 -86 callgsubr
          -417 -614 rmoveto
          hintmask 1011011101010000
          -87 callsubr
          hintmask 0111011101010000
          -94 callgsubr
          383 692 -47 callgsubr
        </CharString>
        <CharString name="ae">
          482 -22 48 -48 114 107 60 76 55 135 54 1 -9 callsubr
          63 -8 callgsubr
          hintmask 1011011111110000
          883 547 rmoveto
          18 -54 -114 15 -109 hhcurveto
          -14 callsubr
          hvcurveto
          hintmask 1011101111110000
          -38 callgsubr
          41 hlineto
          -46 callsubr
          -93 -48 hvcurveto
          4 -88 -83 2 -60 callsubr
          149 24 100 130 hvcurveto
          -86 92 166 -38 183 hhcurveto
          154 222 73 52 16 -15 4 -8 hvcurveto
          -43 callsubr
          101 hlineto
          -20 callgsubr
          -74 -78 -10 -22 -71 hvcurveto
          127 -268 rmoveto
          170 31 87 86 4 callsubr
          vhcurveto
          -105 hlineto
          -330 -117 rmoveto
          hintmask 0111101111110000
          -34 -51 -50 -16 -43 hhcurveto
          -70 -49 41 74 61 39 67 82 31 36 -3 -1 35 hvcurveto
          -53 vlineto
          -53 14 -45 26 -38 vhcurveto
          90 136 -101 callgsubr
          -401 -270 -81 callgsubr
          838 531 10 callsubr
        </CharString>
        <CharString name="agrave">
          -72 callgsubr
          329 217 -47 callsubr
          hintmask 1010101111100000
          -7 callsubr
          75 -550 -79 callgsubr
          177 649 -77 callgsubr
          endchar
        </CharString>
        <CharString name="ampersand">
          299 -23 66 -43 43 270 43 205 -20 54 -20 hstemhm
          0 50 48 264 hintmask 10111110
          960 356 rmoveto
          -43 52 vlineto
          32 13 -6 -17 -35 -40 -42 -62 -40 hvcurveto
          -66 59 -51 70 -34 63 rrcurveto
          162 32 43 59 40 vvcurveto
          55 -74 44 -115 -147 -223 -36 -58 -35 9 -41 15 -42 vhcurveto
          -357 -4 -117 -94 -110 vvcurveto
          -112 130 -86 282 117 110 22 32 100 vhcurveto
          hintmask 01111110
          -20 32 31 -11 28 hhcurveto
          559 43 -125 hlineto
          -105 -92 41 59 -76 hvcurveto
          124 71 85 71 32 28 rrcurveto
          157 43 hlineto
          -879 -323 rmoveto
          -88 -60 37 108 115 42 41 87 8 hvcurveto
          46 -104 80 -111 80 -66 rrcurveto
          -18 -64 -64 -10 -59 hhcurveto
          247 472 rmoveto
          21 7 35 79 78 17 -34 -29 -21 -12 -46 -141 -27 vhcurveto
          -19 41 -9 36 24 vvcurveto
          -200 12 rmoveto
          36 -147 108 -236 220 -98 rrcurveto
          -185 -163 213 247 -60 hvcurveto
          5 8 20 11 19 2 rrcurveto
          -431 -464 rmoveto
          -44 31 -32 46 46 vvcurveto
          46 31 45 45 32 vhcurveto
          4 -4 rlineto
          -25 -38 -7 -45 -36 vvcurveto
          -36 7 -46 25 -38 vhcurveto
          endchar
        </CharString>
        <CharString name="apple">
          -167 -114 101 -76 92 3 -21 30 -21 83 40 243 57 76 93 -77 77 -77 99 hstemhm
          100 115 -91 91 77 128 85 127 75 93 -93 105 hintmask 0100111001011100
          556 -89 rmoveto
          1 3 4 0 3 8 7 -1 8 hhcurveto
          26 2 19 10 17 hvcurveto
          15 8 21 1 13 9 13 9 5 22 12 12 10 10 16 1 9 11 11 13 -1 24 8 14 rrcurveto
          10 17 24 1 28 10 -2 11 11 vvcurveto
          25 22 3 3 20 vhcurveto
          hintmask 1001111001011010
          14 -11 15 15 13 11 12 14 22 -24 14 25 vvcurveto
          hintmask 1001111001011100
          8 1 8 9 vvcurveto
          28 -25 3 -11 18 vhcurveto
          -6 10 5 22 -6 10 -11 19 -26 4 -14 13 -12 12 2 18 -13 9 -14 10 -16 -3 -15 8 rrcurveto
          10 -19 -2 26 -27 -10 -10 -3 -8 hhcurveto
          hintmask 1001110010111100
          -24 -7 25 -26 -14 -17 -12 -14 -13 -18 12 -13 -22 -8 -23 -25 -9 -9 2 -8 hhcurveto
          -25 -1 -7 -28 -17 -9 -16 -8 -22 2 -13 -11 -11 -10 -4 -21 -10 -10 -11 -11 -21 0 -8 -13 -7 -11 3 -21 -7 -11 rrcurveto
          -10 -17 -25 -6 -25 -8 1 -9 -8 vvcurveto
          hintmask 0100111001011100
          -19 -25 -21 -21 -15 12 -10 -17 -15 -12 -15 -14 -21 25 -15 -19 -8 -3 -8 -9 vvcurveto
          -26 26 -11 8 -12 vhcurveto
          11 -18 -7 -11 11 -18 10 -16 16 3 13 -11 13 -11 -1 -24 18 -11 16 -10 7 9 23 -12 rrcurveto
          -7 13 12 -29 26 7 9 2 8 hhcurveto
          hintmask 1001111001011100
          24 11 -25 20 15 15 12 16 15 16 -10 15 hhcurveto
          hintmask 0100111001011100
          17 13 18 5 18 hvcurveto
          -26 92 rmoveto
          hintmask 1001111001011100
          -3 -13 -10 -13 -12 -11 -11 7 -11 hhcurveto
          hintmask 0010111001011100
          -12 -12 -9 -12 hhcurveto
          hintmask 0100111001011100
          2 -14 -7 16 -19 -5 -5 -1 -5 hhcurveto
          -19 -7 21 5 -11 hvcurveto
          -17 9 -5 -8 -11 8 -13 8 1 18 -10 8 -9 8 -12 -2 -7 11 -8 13 5 9 -8 13 rrcurveto
          -5 9 -20 7 19 5 2 6 5 15 -17 11 15 11 8 11 11 12 -8 7 11 16 17 14 16 5 -1 6 5 vvcurveto
          19 19 4 7 13 vhcurveto
          5 8 -2 15 5 8 7 9 14 0 8 8 8 8 2 15 9 7 9 8 16 -2 11 6 rrcurveto
          6 13 4 21 19 6 5 -1 6 hhcurveto
          hintmask 1001110101011100
          19 7 17 16 10 12 -9 10 10 12 9 11 19 3 -18 19 hhcurveto
          hintmask 0100111001011100
          6 7 2 7 hhcurveto
          20 1 -19 -7 13 hvcurveto
          12 -7 11 4 10 -8 10 -7 -2 -13 9 -8 10 -10 19 -3 8 -13 4 -8 -3 -15 4 -8 rrcurveto
          8 -14 18 -1 -21 -6 -1 -6 -5 -18 18 -11 -16 -9 -8 -10 -9 -11 8 -11 -10 vvcurveto
          -3 -14 -15 -3 -19 -6 1 -7 -7 vvcurveto
          -24 -16 3 -8 -14 vhcurveto
          -6 -11 0 -17 -7 -10 -7 -8 -12 0 -7 -8 -8 -8 -4 -15 -10 -7 -9 -7 -16 -1 -10 -6 rrcurveto
          -5 -12 -1 -16 -20 -5 -5 1 -5 hhcurveto
          -3 -3 0 -1 -3 hvcurveto
          -68 414 rmoveto
          -94 -76 -76 -94 -94 76 -76 94 94 76 76 94 94 -76 76 -94 hvcurveto
          43 -125 rmoveto
          -175 -85 175 -54 68 191 -68 vlineto
          endchar
        </CharString>
        <CharString name="approxequal">
          161 81 -28 80 88 81 -31 80 hstemhm
          hintmask 01100000
          640 268 rmoveto
          19 -38 -38 7 -38 hhcurveto
          hintmask 10100000
          -104 -104 -52 -104 hhcurveto
          -38 -38 7 19 -38 hvcurveto
          -80 vlineto
          -20 38 38 -7 38 hhcurveto
          hintmask 01010000
          104 104 53 104 hhcurveto
          38 38 -7 -19 38 hvcurveto
          300 vmoveto
          17 -38 -38 7 -37 hhcurveto
          hintmask 10100000
          -104 -104 -49 -104 hhcurveto
          -38 -39 6 19 -38 hvcurveto
          -80 vlineto
          -19 38 38 -7 39 hhcurveto
          hintmask 10010000
          103 104 50 104 hhcurveto
          38 38 -6 -18 38 hvcurveto
          endchar
        </CharString>
        <CharString name="aring">
          -42 callgsubr
          -55 82 -28 -20 279 -8 callsubr
          8 109 105 62 -62 102 11 224 hintmask 1010011111011000
          741 706 rmoveto
          53 callgsubr
          -62 51 -51 69 -14 vhcurveto
          -135 -3 -116 -15 -111 -34 -38 callgsubr
          41 hlineto
          hintmask 1011001111101000
          -92 callgsubr
          hintmask 0111001111011000
          -55 callsubr
          125 -114 30 -240 2 vhcurveto
          69 14 50 50 62 vvcurveto
          hintmask 1011001111101000
          -210 -614 rmoveto
          -87 callsubr
          hintmask 0110101111101000
          -94 callgsubr
          165 692 46 callgsubr
          46 callsubr
          -37 hmoveto
          -36 12 -32 19 -22 -38 callsubr
          -40 18 -28 37 38 vvcurveto
          38 28 37 40 18 -59 callgsubr
          -22 -12 -33 -35 vvcurveto
          endchar
        </CharString>
        <CharString name="asciicircum">
          210 -21 406 -20 hstem
          209 189 rmoveto
          161 302 161 -302 66 34 -202 372 rlineto
          -50 hlineto
          -202 -372 rlineto
          endchar
        </CharString>
        <CharString name="asciitilde">
          253 80 11 85 callgsubr
          379 rmoveto
          33 -37 -37 12 -38 -105 -109 -91 -103 hhcurveto
          -38 -37 11 34 -36 hvcurveto
          -80 vlineto
          -35 30 40 -10 42 116 84 91 113 hhcurveto
          43 40 -12 -33 32 hvcurveto
          endchar
        </CharString>
        <CharString name="asterisk">
          -414 263 -21 22 -21 301 139 118 -20 hstemhm
          50 278 hintmask 10111000
          442 740 rmoveto
          40 -38 21 -66 -66 -37 -21 -40 -41 79 -160 24 26 78 160 41 vhcurveto
          -132 -218 rmoveto
          32 -133 129 -42 -34 -51 -57 -84 -42 26 -20 45 64 125 19 23 vhcurveto
          56 hmoveto
          -23 125 -19 64 45 26 20 42 84 -51 57 -34 -42 -133 -129 -32 vhcurveto
          -38 -71 rmoveto
          10 -1 26 -12 -33 -172 -73 -62 -12 4 -12 10 -13 vhcurveto
          -50 36 50 -22 35 hhcurveto
          12 11 2 6 7 hvcurveto
          28 23 25 116 61 vvcurveto
          36 37 rmoveto
          -15 0 -20 -15 -43 14 -73 14 -43 hvcurveto
          -33 10 20 -19 27 hhcurveto
          7 8 1 3 8 hvcurveto
          71 23 39 55 34 vvcurveto
          4 -1 4 -1 4 vhcurveto
          38 -12 -148 80 -41 hhcurveto
          -51 287 rmoveto
          -10 -7 -4 -10 -7 vvcurveto
          1 -23 32 -77 26 -53 -20 -31 rcurveline
          -27 48 -42 101 29 vvcurveto
          19 13 15 28 5 vhcurveto
          -229 -215 rmoveto
          -24 5 26 -1 22 hhcurveto
          39 48 6 6 40 hvcurveto
          23 -28 rlineto
          -9 -40 -63 -7 -46 hhcurveto
          -39 -27 9 36 hvcurveto
          5 1 4 2 vvcurveto
          84 -261 rmoveto
          -8 8 -8 9 15 vvcurveto
          33 66 40 101 52 vhcurveto
          -2 -37 rlineto
          -24 -11 -118 -62 -31 vvcurveto
          hintmask 01111000
          -4 0 -3 3 -6 vhcurveto
          312 -38 rmoveto
          -4 -7 -7 -2 -11 hhcurveto
          -49 -23 126 72 -7 hvcurveto
          34 -13 rlineto
          -83 10 23 -86 37 hhcurveto
          130 286 rmoveto
          1 -6 0 -3 -4 vvcurveto
          -34 -23 -9 -43 -46 -63 7 9 -40 vhcurveto
          23 28 rlineto
          -6 40 48 -6 39 hhcurveto
          22 27 1 25 5 hvcurveto
          endchar
        </CharString>
        <CharString name="at">
          188 -222 60 161 117 240 53 235 50 hstem
          50 60 64 102 86 50 50 138 135 52 64 170 167 60 vstem
          587 694 rmoveto
          -357 -180 -223 -227 -231 189 -235 379 347 283 242 297 hvcurveto
          -60 hlineto
          -264 -256 -215 -314 -236 -106 196 199 204 112 207 199 136 12 -97 -51 vhcurveto
          -90 vlineto
          2 -31 -28 1 -76 hhcurveto
          -163 -75 -102 -102 -103 76 -103 137 59 64 25 46 53 hvcurveto
          24 -52 rlineto
          246 479 hlineto
          169 -201 28 -233 vhcurveto
          -272 -812 rmoveto
          -125 54 -80 164 144 vvcurveto
          145 80 160 124 55 vhcurveto
          3 -8 rlineto
          -83 -63 -60 -139 -150 vvcurveto
          -151 61 -139 83 -64 vhcurveto
          408 761 rmoveto
          92 -20 33 -72 -34 vvcurveto
          -451 -64 451 vlineto
          31 -8 63 -56 22 vhcurveto
          -29 -525 rmoveto
          -66 -28 56 57 61 31 66 64 14 13 0 -1 13 hvcurveto
          -234 vlineto
          -3 -14 -15 -2 -12 hhcurveto
          -232 89 rmoveto
          -53 25 -69 63 -42 vhcurveto
          -2 -7 rlineto
          -86 34 -50 68 69 vvcurveto
          69 50 67 86 35 vhcurveto
          2 -7 rlineto
          -63 -42 -25 -70 -52 vvcurveto
          endchar
        </CharString>
        <CharString name="atilde">
          -42 callgsubr
          -55 122 -68 -20 54 84 -35 89 -69 69 -25 61 -1 25 callgsubr
          hintmask 1011001001011110
          -91 callgsubr
          hintmask 0111001001011110
          -75 callsubr
          hintmask 1010010100111110
          -38 callgsubr
          hlineto
          742 361 rmoveto
          22 callgsubr
          hintmask 1011001001011110
          -61 callsubr
          hintmask 1011000100111110
          21 callsubr
          hintmask 1011001000111110
          -57 callgsubr
          -371 -694 rmoveto
          -87 callsubr
          hintmask 0110100100111110
          -94 callgsubr
          462 679 rmoveto
          70 callsubr
          hintmask 1011001001011110
          -69 callgsubr
          hintmask 1011000010111110
          6 callgsubr
          hintmask 1011001001011110
          29 46 6 9 28 hvcurveto
          endchar
        </CharString>
        <CharString name="b">
          76 -22 43 475 84 97 43 hstem
          156 -49 callgsubr
          253 63 69 238 vstem
          493 56 callsubr
          -610 29 vlineto
          33 91 rlineto
          -48 126 139 -43 186 hhcurveto
          307 140 156 153 147 -131 146 -238 -94 -94 -25 -58 -66 hvcurveto
          126 -1 rmoveto
          100 27 -105 -147 -147 -46 -76 -81 -80 -46 76 147 hvcurveto
          188 vlineto
          22 17 50 42 59 hhcurveto
          -350 -383 rmoveto
          -51 17 rlineto
          547 51 vlineto
          452 -653 rmoveto
          57 41 31 81 98 vvcurveto
          105 -21 97 -66 48 vhcurveto
          4 6 rlineto
          117 -48 35 -113 -94 vvcurveto
          -90 -54 -93 -99 -42 vhcurveto
          endchar
        </CharString>
        <CharString name="backslash">
          80 callgsubr
          532 -52 rmoveto
          -400 722 rlineto
          -82 hlineto
          400 -722 rlineto
          endchar
        </CharString>
        <CharString name="bar">
          50 callsubr
          715 rmoveto
          -65 -810 65 hlineto
          endchar
        </CharString>
        <CharString name="braceleft">
          -285 -96 -21 398 58 398 -20 hstem
          144 65 73 216 vstem
          43 61 callgsubr
          70 31 -14 -75 -89 82 -220 458 hvcurveto
          54 vlineto
          0 -186 9 193 vvcurveto
          152 -57 11 -84 vhcurveto
          16 vlineto
          84 57 11 152 193 186 9 0 hvcurveto
          54 vlineto
          -458 -82 -220 -89 -75 -31 -14 -70 hvcurveto
          120 -25 rmoveto
          26 10 20 25 55 vvcurveto
          140 71 90 201 48 vhcurveto
          2 -7 rlineto
          -169 -64 -32 -48 -159 vvcurveto
          -60 -38 -27 -55 -7 vhcurveto
          55 -7 38 -28 -59 vvcurveto
          -159 32 -48 169 -64 vhcurveto
          -2 -7 rlineto
          -201 48 -71 90 140 vvcurveto
          55 -20 25 -26 10 vhcurveto
          endchar
        </CharString>
        <CharString name="braceright">
          -285 -96 -21 399 56 399 -20 hstem
          307 72 73 209 vstem
          762 339 rmoveto
          -70 -31 14 75 89 -82 220 -458 hvcurveto
          -54 vlineto
          0 186 -9 -193 vvcurveto
          -152 57 -11 84 vhcurveto
          -16 vlineto
          -84 -57 -11 -152 -193 -186 -9 0 hvcurveto
          -54 vlineto
          458 82 220 89 75 31 14 70 hvcurveto
          -264 57 rmoveto
          -70 -49 18 80 159 -32 48 -129 44 hvcurveto
          2 7 rlineto
          181 -48 51 -70 -140 vvcurveto
          -55 20 -25 26 -10 vhcurveto
          -72 vmoveto
          -26 -10 -20 -25 -55 vvcurveto
          -140 -51 -70 -181 -48 vhcurveto
          -2 7 rlineto
          129 44 32 48 159 vvcurveto
          80 49 18 70 vhcurveto
          endchar
        </CharString>
        <CharString name="bracketleft">
          -385 -95 43 722 45 hstem
          150 66 callsubr
          495 562 rmoveto
          59 49 49 60 vhcurveto
          121 45 -575 -810 575 43 -121 22 callsubr
          -213 -108 rmoveto
          -65 722 65 hlineto
          endchar
        </CharString>
        <CharString name="bracketright">
          -375 -95 43 722 45 hstem
          220 66 callsubr
          220 56 rmoveto
          83 callsubr
          -121 -43 575 810 -575 -45 121 hlineto
          60 49 -49 -59 hvcurveto
          67 108 rmoveto
          65 -722 -65 hlineto
          endchar
        </CharString>
        <CharString name="breve">
          -600 591 135 -63 63 61 -20 hstemhm
          hintmask 10100000
          246 726 rmoveto
          -81 -53 28 33 -41 hvcurveto
          -21 -6 rlineto
          -105 89 -85 107 109 85 85 105 vhcurveto
          -20 6 rlineto
          -33 -40 -52 -28 -82 hhcurveto
          hintmask 01100000
          -63 vmoveto
          54 48 18 24 32 hvcurveto
          5 -3 rlineto
          -48 -27 -54 -31 -58 hhcurveto
          -57 -54 31 48 -27 hvcurveto
          5 3 rlineto
          -24 32 50 -18 51 hhcurveto
          endchar
        </CharString>
        <CharString name="brokenbar">
          50 callsubr
          233 rmoveto
          -65 -328 65 hlineto
          810 vmoveto
          -65 -328 65 hlineto
          endchar
        </CharString>
        <CharString name="bullet">
          -535 202 -21 291 -20 hstem
          90 67 65 243 vstem
          90 181 rmoveto
          375 291 -375 hlineto
          132 -251 rmoveto
          -65 211 65 hlineto
          endchar
        </CharString>
        <CharString name="c">
          -147 -22 48 63 callsubr
          hintmask 11011000
          581 26 rmoveto
          -24 callgsubr
          hlineto
          hintmask 10111000
          208 -53 -40 vlineto
          hintmask 11011000
          58 callsubr
          -216 -255 -86 -215 -212 235 -88 271 26 callsubr
          -28 callsubr
        </CharString>
        <CharString name="caron">
          -399 624 146 hstem
          508 624 -66 callsubr
        </CharString>
        <CharString name="ccedilla">
          -147 -223 48 154 47 63 callsubr
          38 210 -100 100 hintmask 11101110
          221 13 callsubr
          49 -43 38 -64 25 hvcurveto
          75 3 84 16 65 25 rrcurveto
          2 callsubr
          -24 callgsubr
          hlineto
          hintmask 11011110
          208 -53 -40 vlineto
          hintmask 11101110
          58 callsubr
          -216 -255 -86 -215 -167 145 -90 194 -30 hvcurveto
          59 -18 29 -33 -45 25 callsubr
          -40 357 -101 callgsubr
          314 -302 rmoveto
          hintmask 11101101
          -32 callgsubr
        </CharString>
        <CharString name="cedilla">
          -524 -223 48 191 -20 hstemhm
          306 210 -100 100 hintmask 11100000
          50 13 callsubr
          98 -171 51 -170 hvcurveto
          -16 vlineto
          88 -13 43 -37 -55 25 callsubr
          274 55 rmoveto
          hintmask 11010000
          -32 callgsubr
        </CharString>
        <CharString name="cent">
          -77 -89 -21 137 48 510 43 132 -20 hstemhm
          120 63 68 258 -29 50 hintmask 11111100
          651 75 rmoveto
          -24 callgsubr
          208 -53 -40 hlineto
          58 callsubr
          hintmask 11111010
          -20 -21 -1 -1 -20 hvcurveto
          134 -50 -140 vlineto
          -184 -25 -176 -89 -179 vvcurveto
          -173 156 -90 204 -28 vhcurveto
          -146 50 140 vlineto
          -2 31 32 -1 33 hhcurveto
          26 callsubr
          hintmask 11111100
          -28 callsubr
        </CharString>
        <CharString name="circumflex">
          -399 624 70 callgsubr
          hintmask 10000000
          184 770 -84 callsubr
          hintmask 01000000
          -46 callgsubr
        </CharString>
        <CharString name="colon">
          -496 -1 -21 656 -20 hstemhm
          91 410 -321 321 hintmask 11100000
          501 508 rmoveto
          -73 callgsubr
          hintmask 11010000
          -321 -99 callgsubr
          321 -405 rmoveto
          13 callgsubr
          vhcurveto
          hintmask 11100000
          -70 callsubr
          hvcurveto
          hintmask 11010000
          -321 -99 callgsubr
          endchar
        </CharString>
        <CharString name="comma">
          -495 -130 -21 150 42 callsubr
          91 404 vstem
          181 103 -76 callgsubr
        </CharString>
        <CharString name="copyright">
          -315 192 147 244 139 hstemhm
          45 307 -135 135 hintmask 11100000
          -50 callsubr
          424 -109 rmoveto
          20 13 11 11 8 vvcurveto
          7 -4 1 -3 vhcurveto
          -11 -30 -49 -76 hhcurveto
          -44 -15 23 53 hvcurveto
          110 vlineto
          33 10 25 35 48 46 -48 -40 16 vhcurveto
          14 96 -14 -20 hlineto
          15 -31 -37 15 -40 hhcurveto
          hintmask 11010000
          -84 -98 -38 -101 -99 90 -41 103 45 29 13 13 20 hvcurveto
          endchar
        </CharString>
        <CharString name="d">
          100 -22 65 -43 43 453 84 97 43 hstemhm
          50 63 52 254 248 62 51 225 hintmask 10111111
          780 43 rmoveto
          -51 634 51 hlineto
          -113 -180 rmoveto
          58 -69 -95 25 -92 hhcurveto
          -235 -126 -162 -156 -145 111 -139 233 98 110 34 56 65 hvcurveto
          hintmask 01111111
          -68 -11 callsubr
          -49 -40 23 66 hvcurveto
          588 -472 -43 54 vlineto
          44 36 -41 -48 hvcurveto
          -124 -92 rmoveto
          58 49 -42 -22 17 hvcurveto
          -301 vlineto
          -40 -26 -44 -37 -54 hhcurveto
          -79 -45 71 137 136 27 98 97 hvcurveto
          -136 -486 rmoveto
          -199 16 -95 116 120 vvcurveto
          125 102 131 190 27 vhcurveto
          2 -10 rlineto
          -158 -29 -84 -124 -119 vvcurveto
          -116 78 -111 166 -18 vhcurveto
          endchar
        </CharString>
        <CharString name="dagger">
          -19 -124 -21 592 83 276 75 callgsubr
          711 806 rmoveto
          -351 -177 hlineto
          45 callgsubr
          -493 351 493 4 callgsubr
          -232 57 rmoveto
          -89 82 callsubr
          210 58 vlineto
          -873 vmoveto
          -58 526 hlineto
          24 -10 34 -30 -90 vvcurveto
          endchar
        </CharString>
        <CharString name="daggerdbl">
          -19 -125 -21 231 83 324 83 231 75 callgsubr
          479 731 rmoveto
          -89 82 callsubr
          165 58 vlineto
          -58 -302 rmoveto
          24 -10 34 -31 -71 vvcurveto
          -46 vlineto
          -72 82 callsubr
          -61 72 rmoveto
          -51 -42 -48 -52 vhcurveto
          -203 -83 199 hlineto
          54 44 -46 -53 hvcurveto
          -132 351 132 4 callgsubr
          126 4 callgsubr
          132 -351 -132 vlineto
          45 callgsubr
          119 -500 rmoveto
          -58 165 hlineto
          24 -10 34 -30 -89 vvcurveto
          endchar
        </CharString>
        <CharString name="degree">
          -643 451 60 267 60 hstem
          30 60 267 60 vstem
          30 644 rmoveto
          -107 86 -86 107 107 87 86 107 107 -87 87 -107 -107 -86 -87 -107 vhcurveto
          60 hmoveto
          74 59 60 74 74 60 -60 -74 -74 -60 -59 -74 -74 -59 59 74 vhcurveto
          endchar
        </CharString>
        <CharString name="dieresis">
          -205 614 -21 228 -20 hstem
          77 40 callgsubr
          vstem
          807 706 rmoveto
          63 -61 52 -77 -75 -61 -52 -63 -63 61 -50 75 77 61 50 63 vhcurveto
          -105 callgsubr
          endchar
        </CharString>
        <CharString name="divide">
          73 161 64 80 64 161 hstem
          265 210 cntrmask 11100000
          475 153 rmoveto
          41 callsubr
          369 vmoveto
          41 callsubr
          165 -144 1 callsubr
        </CharString>
        <CharString name="dollar">
          171 -89 -21 89 51 callsubr
          130 -20 hstemhm
          96 61 427 50 224 308 -189 189 hintmask 1011011110000000
          96 447 rmoveto
          -155 269 -64 219 -50 vhcurveto
          -149 vlineto
          -217 35 -190 134 -36 83 rrcurveto
          -47 -281 47 hlineto
          28 58 145 -45 115 -27 155 -6 rlinecurve
          -90 50 vlineto
          hintmask 1100111101000000
          89 10 vlineto
          337 185 65 162 209 -315 30 -217 41 hvcurveto
          137 vlineto
          175 -26 232 -98 42 -60 rrcurveto
          47 211 -47 hlineto
          -18 -43 -110 24 -183 29 -138 8 rlinecurve
          92 -50 vlineto
          hintmask 1101011101000000
          -90 -17 vlineto
          -22 callsubr
          -53 callgsubr
          hintmask 1101011110000000
          -119 1 rmoveto
          -43 -90 -7 -77 -19 -19 1 1 -19 vhcurveto
          145 vlineto
          126 -29 98 -27 -41 vvcurveto
          -427 505 rmoveto
          42 56 12 71 vhcurveto
          8 9 -1 9 hhcurveto
          -133 vlineto
          -90 18 -63 21 41 vvcurveto
          endchar
        </CharString>
        <CharString name="dotaccent">
          -716 614 -21 228 -20 hstem
          50 274 vstem
          324 706 -86 callsubr
          -212 hmoveto
          -31 11 -28 16 -19 vhcurveto
          -2 -3 rlineto
          -35 16 -25 32 33 vvcurveto
          33 25 32 35 16 vhcurveto
          2 -3 rlineto
          -16 -19 -11 -28 -31 vvcurveto
          endchar
        </CharString>
        <CharString name="dotlessi">
          18 callgsubr
          hstem
          -11 callgsubr
          vstem
          554 558 -78 callgsubr
          endchar
        </CharString>
        <CharString name="e">
          11 callgsubr
          hstem
          50 63 -8 callgsubr
          vstem
          -96 callsubr
          -357 -258 -91 callsubr
          endchar
        </CharString>
        <CharString name="eacute">
          -68 callgsubr
          163 106 -68 callsubr
          hintmask 1101111110000000
          3 callgsubr
          -520 -364 -91 callsubr
          -119 130 38 callgsubr
        </CharString>
        <CharString name="ecircumflex">
          11 callgsubr
          45 70 callgsubr
          50 63 -8 callgsubr
          hintmask 1111011110000000
          -93 callgsubr
          -73 571 -90 callsubr
          -138 -234 -51 callsubr
          -357 -258 -91 callsubr
          -150 208 rmoveto
          hintmask 1110111110000000
          -46 callgsubr
        </CharString>
        <CharString name="edieresis">
          11 callgsubr
          242 -20 hstemhm
          50 63 -63 166 -37 242 -242 40 callgsubr
          -259 63 51 159 hintmask 1111101001100000
          -96 callsubr
          hintmask 1111100110000000
          371 170 -86 callsubr
          -84 callgsubr
          -272 -428 -101 callgsubr
          437 267 rmoveto
          hintmask 1111010001100000
          -72 callsubr
          97 169 -47 callgsubr
        </CharString>
        <CharString name="egrave">
          -68 callgsubr
          -151 106 -47 callsubr
          hintmask 1101111110000000
          -7 callsubr
          -206 -364 -91 callsubr
          -139 126 -77 callgsubr
          endchar
        </CharString>
        <CharString name="eight">
          8 -1 -21 692 -20 hstemhm
          57 55 15 57 -16 225 -161 161 313 62 36 168 -149 218 hintmask 1111011100000000
          722 385 rmoveto
          20 37 13 41 44 vvcurveto
          42 -13 43 -19 37 vhcurveto
          4 4 rlineto
          47 -32 30 -44 -50 vvcurveto
          -49 -30 -44 -48 -32 vhcurveto
          -373 -2 rmoveto
          -102 29 -67 46 52 vvcurveto
          54 69 49 105 27 vhcurveto
          1 -4 rlineto
          -77 -29 -50 -46 -51 vvcurveto
          -51 48 -43 75 -29 vhcurveto
          38 121 rmoveto
          92 33 48 123 123 34 -48 -92 -94 -59 -42 -98 -98 -58 42 94 vhcurveto
          -72 -485 rmoveto
          -126 32 -83 57 65 vvcurveto
          65 82 56 125 33 vhcurveto
          2 -4 rlineto
          hintmask 1110101010000000
          -93 -33 -60 -55 -62 vvcurveto
          -62 62 -55 93 -33 vhcurveto
          226 -12 rmoveto
          -99 -58 55 107 116 48 55 109 119 38 -67 -104 -107 -58 -55 -99 hvcurveto
          179 16 rmoveto
          25 44 15 50 52 vvcurveto
          52 -15 50 -24 44 vhcurveto
          2 4 rlineto
          58 -37 34 -53 -60 vvcurveto
          -59 -34 -54 -57 -36 vhcurveto
          hintmask 1111011100000000
          240 482 rmoveto
          90 -164 73 -259 -258 -164 -73 -90 -65 96 -56 141 -26 vhcurveto
          -4 vlineto
          -193 -28 -114 -71 -83 vvcurveto
          -108 220 -88 272 vhcurveto
          hintmask 1111011010000000
          272 220 88 108 83 -114 71 -192 28 hvcurveto
          4 vlineto
          hintmask 1111011100000000
          140 26 97 56 65 vvcurveto
          endchar
        </CharString>
        <CharString name="ellipsis">
          692 -1 42 callsubr
          501 103 rmoveto
          -99 callsubr
          915 hmoveto
          -99 callsubr
          915 hmoveto
          -99 callsubr
          endchar
        </CharString>
        <CharString name="emdash">
          122 263 80 hstem
          1112 343 rmoveto
          -1012 -80 1012 hlineto
          endchar
        </CharString>
        <CharString name="endash">
          -80 263 80 hstem
          910 343 76 callgsubr
        </CharString>
        <CharString name="equal">
          188 80 140 85 callgsubr
          268 rmoveto
          -540 -80 540 hlineto
          300 vmoveto
          2 callgsubr
        </CharString>
        <CharString name="eth">
          12 -22 43 450 44 51 -20 160 43 hstemhm
          50 371 -271 271 278 63 69 221 hintmask 11111011
          688 500 rmoveto
          9 -46 -50 6 -53 hhcurveto
          -299 -190 -124 -146 -147 211 -120 259 367 165 191 191 134 -59 96 -89 63 hvcurveto
          178 36 rlineto
          60 vlineto
          -257 -51 rlineto
          34 -79 -92 17 -93 hhcurveto
          -148 -117 -28 -34 -111 hvcurveto
          37 vlineto
          hintmask 11110111
          -35 -158 35 hlineto
          0 156 140 153 64 45 -18 -29 30 vhcurveto
          -169 -33 rlineto
          -60 vlineto
          205 41 rlineto
          13 -32 6 -37 -38 vvcurveto
          -128 -29 rmoveto
          109 30 -80 -147 -147 -51 -76 -88 -88 -51 76 147 147 30 80 109 hvcurveto
          159 190 rmoveto
          69 -73 43 -107 -121 vvcurveto
          -122 -44 -106 -69 -74 vhcurveto
          -4 4 rlineto
          30 92 18 99 107 vvcurveto
          107 -18 101 -29 89 vhcurveto
          -557 -412 rmoveto
          -103 107 -79 149 -34 vhcurveto
          -2 -7 rlineto
          -188 35 -134 81 107 vvcurveto
          107 134 81 189 34 vhcurveto
          2 -5 rlineto
          -150 -34 -107 -79 -104 vvcurveto
          endchar
        </CharString>
        <CharString name="exclam">
          -411 -5 -21 827 -20 hstemhm
          109 74 -43 67 hintmask 11100000
          568 113 27 callgsubr
          569 rmoveto
          78 -73 41 -126 vhcurveto
          hintmask 11010000
          -128 -71 -41 -78 -76 152 -309 47 48 151 309 76 hvcurveto
          -235 68 rmoveto
          -25 -9 -23 -18 -17 vvcurveto
          1 -46 64 -161 49 -99 -30 -48 rcurveline
          -51 89 -81 200 54 vvcurveto
          33 43 22 49 9 vhcurveto
          -62 -646 -6 callsubr
        </CharString>
        <CharString name="exclamdown">
          -411 -202 -21 827 -20 hstemhm
          108 74 -43 67 hintmask 11100000
          567 465 27 callgsubr
          -569 rmoveto
          76 -151 309 -48 vhcurveto
          hintmask 11010000
          -47 -152 -309 -76 -78 71 -41 128 126 73 41 78 hvcurveto
          -239 -77 rmoveto
          -49 9 -43 22 33 vvcurveto
          54 81 200 51 89 vhcurveto
          30 -48 -49 -99 -64 -161 -1 -46 rlinecurve
          -17 23 -18 25 -9 vhcurveto
          -66 637 -6 callsubr
        </CharString>
        <CharString name="f">
          -313 -18 callgsubr
          308 -20 hstem
          -11 callgsubr
          vstem
          193 558 rmoveto
          -133 -58 callsubr
          294 vlineto
          66 41 23 49 vhcurveto
          66 43 -162 hlineto
          -100 -73 29 97 -30 -29 callgsubr
          -130 -121 -59 -249 -95 hvcurveto
          12 -36 -30 callgsubr
        </CharString>
        <CharString name="fi">
          426 -18 callgsubr
          308 -20 -7 callgsubr
          164 276 0 -49 callgsubr
          hintmask 11111101
          193 558 rmoveto
          -133 -58 callsubr
          294 vlineto
          66 41 23 49 vhcurveto
          66 43 -162 hlineto
          -100 -73 29 97 -30 -29 callgsubr
          -130 -121 -59 -249 -95 hvcurveto
          1138 hmoveto
          -494 -58 callsubr
          31 608 rmoveto
          -69 -92 -56 -113 -113 -92 56 69 69 92 57 113 113 92 -57 -69 vhcurveto
          -255 -697 rmoveto
          hintmask 11111011
          23 callsubr
          -901 7 -15 callgsubr
          837 225 rmoveto
          35 14 30 22 22 vhcurveto
          -50 -17 -35 -33 -37 vvcurveto
          -37 35 -33 50 -17 vhcurveto
          -22 23 -14 30 34 vvcurveto
          -608 -8 -56 callsubr
        </CharString>
        <CharString name="five">
          -70 -22 40 3 -21 383 53 89 125 13 -20 hstemhm
          622 336 -241 241 hintmask 10110010
          958 211 rmoveto
          174 -278 51 -169 -170 -76 -27 -39 -99 vhcurveto
          121 155 rlineto
          431 hlineto
          253 125 -23 13 rlineto
          hintmask 10101100
          0 -10 -13 -52 vhcurveto
          -437 hlineto
          hintmask 10110100
          -75 -3 13 0 hvcurveto
          hintmask 10101100
          -20 hlineto
          -302 -384 17 -16 rlineto
          0 118 120 186 232 20 -120 -66 -66 -24 -113 -158 -192 -95 99 82 -68 vhcurveto
          -35 -199 35 43 hlineto
          0 148 -65 209 222 294 60 173 vhcurveto
          -372 176 rmoveto
          hintmask 01110100
          1 131 -28 -158 vvcurveto
          -161 -111 -23 0 vhcurveto
          -1 4 rlineto
          hintmask 10110100
          0 62 41 137 vvcurveto
          137 -83 46 0 vhcurveto
          endchar
        </CharString>
        <CharString name="fl">
          416 -18 callgsubr
          119 43 146 -20 hstem
          -11 callgsubr
          430 43 callsubr
          193 558 rmoveto
          -133 -58 callsubr
          294 vlineto
          66 41 23 49 vhcurveto
          66 43 -162 hlineto
          -100 -73 29 97 -30 -29 callgsubr
          -130 -121 -59 -249 -95 hvcurveto
          1127 162 -17 callgsubr
          -891 -155 -30 callgsubr
        </CharString>
        <CharString name="florin">
          -238 -199 45 568 50 391 -20 hstem
          71 callgsubr
          vstem
          606 325 rmoveto
          66 41 23 49 vhcurveto
          126 50 -222 hlineto
          -100 -103 32 177 -29 callgsubr
          -168 -91 -140 -251 -87 hvcurveto
          -223 -50 156 hlineto
          -33 callgsubr
          -393 vlineto
          -48 -41 -38 -49 vhcurveto
          -106 -45 345 hlineto
          130 58 70 129 hvcurveto
          -224 -43 rmoveto
          -40 -16 -56 -108 -23 vhcurveto
          -2 7 rlineto
          65 26 10 50 36 vvcurveto
          344 -31 callgsubr
          2 7 rlineto
          108 -23 16 -56 -40 vvcurveto
          103 420 -56 callsubr
        </CharString>
        <CharString name="four">
          -78 0 43 135 42 387 43 hstem
          424 66 callsubr
          956 178 rmoveto
          42 -187 277 vlineto
          60 49 50 59 vhcurveto
          78 43 -491 hlineto
          -407 -430 rlineto
          -42 367 -27 vlineto
          83 callsubr
          -77 -43 717 43 -78 hlineto
          -59 -49 28 80 hvcurveto
          27 vlineto
          -626 42 rmoveto
          302 350 rlineto
          0 -21 -52 -93 vvcurveto
          -205 vlineto
          132 -178 rmoveto
          -65 565 65 hlineto
          endchar
        </CharString>
        <CharString name="fraction">
          -524 -1 -21 692 -20 hstem
          112 -43 callgsubr
          endchar
        </CharString>
        <CharString name="g">
          -30 -266 -21 137 49 244 43 350 44 -22 -20 300 -20 hstemhm
          73 63 -63 263 -132 177 278 63 -63 411 -280 177 hintmask 1110111010100000
          966 362 rmoveto
          108 -139 90 -226 17 vhcurveto
          25 39 35 41 34 25 rrcurveto
          -61 15 78 -63 93 hhcurveto
          105 84 63 78 77 -82 62 -102 hvcurveto
          hintmask 1111010101010000
          -133 -109 -69 -189 -98 hvcurveto
          -26 hlineto
          -274 -173 -97 -121 -74 74 -65 113 -40 hvcurveto
          -104 -31 -91 -54 -102 vvcurveto
          -279 668 167 76 -171 vhcurveto
          93 31 65 69 73 309 -631 -194 125 vvcurveto
          13 8 10 15 8 vhcurveto
          -9 50 54 -5 57 hhcurveto
          247 199 98 121 hvcurveto
          -446 174 rmoveto
          80 59 -59 -116 -116 -75 -59 -64 hvcurveto
          hintmask 1111011011010000
          -64 -75 59 116 116 60 59 79 hvcurveto
          -385 -497 rmoveto
          26 -102 153 -31 161 -7 175 -8 159 -4 17 -105 -8 -2 rcurveline
          -54 46 -64 13 -227 11 rrcurveto
          -202 10 -150 37 101 vvcurveto
          13 2 13 5 14 vhcurveto
          221 156 rmoveto
          -128 35 -85 59 74 vvcurveto
          73 84 58 128 35 vhcurveto
          3 -9 rlineto
          -90 -35 -57 -54 -68 vvcurveto
          -68 58 -56 91 -35 vhcurveto
          326 316 rmoveto
          69 -38 42 -69 -51 vvcurveto
          -53 -43 -69 -69 -38 vhcurveto
          -7 2 rlineto
          30 49 21 62 47 vvcurveto
          46 -21 63 -29 47 vhcurveto
          103 182 rmoveto
          -38 12 -34 21 -27 vhcurveto
          35 callsubr
        </CharString>
        <CharString name="germandbls">
          160 -22 40 -18 0 callsubr
          92 44 hstemhm
          71 callgsubr
          219 193 -134 53 -13 94 -34 266 hintmask 1011110101000000
          896 29 rmoveto
          30 43 11 60 40 vvcurveto
          42 -13 70 -38 41 vhcurveto
          4 5 rlineto
          64 -45 30 -57 -56 vvcurveto
          -53 -28 -55 -56 -39 vhcurveto
          -73 402 rmoveto
          -5 3 rlineto
          32 34 22 42 38 vvcurveto
          23 -7 24 -10 21 72 callgsubr
          hintmask 0111110010000000
          37 -21 23 -31 -32 vvcurveto
          -45 -53 -38 -44 -21 vhcurveto
          -379 168 rmoveto
          -65 -58 -1 -88 -44 vvcurveto
          -362 -51 353 vlineto
          40 2 104 113 62 vhcurveto
          -177 -471 rmoveto
          75 callsubr
          550 hlineto
          66 55 34 56 vhcurveto
          hintmask 1011111000000000
          54 54 -33 -67 -65 -42 -58 -81 -32 hvcurveto
          -28 vlineto
          hintmask 1011110101000000
          114 -25 68 -69 -93 vvcurveto
          -90 -49 -72 -95 -25 -24 2 5 -25 vhcurveto
          -5 -42 rlineto
          -3 34 36 -2 36 hhcurveto
          272 211 78 127 92 -132 86 -231 18 hvcurveto
          5 vlineto
          hintmask 1011111000000000
          89 36 42 64 53 vvcurveto
          96 -150 61 -172 -220 -120 -50 -86 -70 vhcurveto
          -213 -43 106 hlineto
          48 42 -40 -47 hvcurveto
          endchar
        </CharString>
        <CharString name="grave">
          62 callsubr
          hintmask 10100000
          198 642 -47 callsubr
          hintmask 01100000
          -85 callgsubr
        </CharString>
        <CharString name="greater">
          108 -21 504 -20 hstem
          107 520 27 callsubr
          endchar
        </CharString>
        <CharString name="greaterequal">
          0 80 573 -20 hstem
          114 582 27 callsubr
          492 -573 1 callsubr
        </CharString>
        <CharString name="guillemotleft">
          -412 -25 callgsubr
          225 -45 rmoveto
          -51 callgsubr
          endchar
        </CharString>
        <CharString name="guillemotright">
          -412 -27 callsubr
          456 74 -52 callsubr
          endchar
        </CharString>
        <CharString name="guilsinglleft">
          -737 -25 callgsubr
          endchar
        </CharString>
        <CharString name="guilsinglright">
          -737 -27 callsubr
          endchar
        </CharString>
        <CharString name="h">
          80 callsubr
          97 43 hstem
          -11 callgsubr
          248 43 callsubr
          329 43 rmoveto
          -51 634 51 hlineto
          224 43 -35 callsubr
          -456 vlineto
          -57 -32 -32 -58 -62 callgsubr
          24 callgsubr
          235 vlineto
          53 callsubr
          -25 -67 -40 callsubr
          237 56 rmoveto
          79 -18 45 -48 -63 vvcurveto
          -314 -51 314 vlineto
          57 -28 45 -47 20 vhcurveto
          endchar
        </CharString>
        <CharString name="hungarumlaut">
          -161 624 146 -110 -20 hstemhm
          hintmask 10000000
          336 642 -31 callsubr
          557 -21 -31 callsubr
          endchar
        </CharString>
        <CharString name="hyphen">
          263 85 callgsubr
          343 1 callsubr
        </CharString>
        <CharString name="i">
          18 callgsubr
          308 -20 hstem
          278 51 vstem
          554 558 -78 callgsubr
          255 225 rmoveto
          -73 callgsubr
          12 callsubr
        </CharString>
        <CharString name="iacute">
          29 callsubr
          495 642 rmoveto
          124 29 24 99 0 vvcurveto
          -291 hlineto
          -96 callgsubr
          hintmask 11011100
          263 -105 -78 callgsubr
          endchar
        </CharString>
        <CharString name="icircumflex">
          18 callgsubr
          66 146 -108 -20 -7 callgsubr
          hintmask 11101100
          188 770 -84 callsubr
          hintmask 11011100
          -42 callsubr
          314 -187 -78 callgsubr
          endchar
        </CharString>
        <CharString name="idieresis">
          18 callgsubr
          59 callsubr
          4 274 -62 -49 callgsubr
          -93 274 hintmask 11110010
          734 706 rmoveto
          63 -61 52 -77 -75 -61 -52 -63 -63 61 -50 75 77 61 50 63 vhcurveto
          -105 callgsubr
          16 -148 rmoveto
          44 callgsubr
          hintmask 11101100
          -81 callsubr
          endchar
        </CharString>
        <CharString name="igrave">
          29 callsubr
          202 642 -52 callgsubr
          36 hlineto
          -95 callgsubr
          hintmask 11011100
          262 -109 -78 callgsubr
          endchar
        </CharString>
        <CharString name="infinity">
          -228 131 76 256 76 hstem
          50 77 608 77 vstem
          630 131 rmoveto
          103 79 80 121 133 -81 74 -96 -91 -62 -41 -97 -52 hvcurveto
          82 -52 -58 56 -89 hhcurveto
          -102 -79 -80 -121 -133 81 -74 96 91 62 41 98 52 hvcurveto
          -83 52 58 -56 88 hhcurveto
          -391 76 rmoveto
          -67 -45 54 76 78 45 48 67 62 48 -55 -65 41 hvcurveto
          -84 -34 -61 -52 -56 hhcurveto
          384 256 rmoveto
          67 45 -54 -76 -78 -45 -48 -67 -61 -48 55 66 -42 hvcurveto
          83 34 61 52 56 hhcurveto
          endchar
        </CharString>
        <CharString name="integral">
          -306 -199 43 914 43 hstem
          197 67 64 259 vstem
          328 31 45 callsubr
          302 86 rmoveto
          -339 -94 -82 -136 hvcurveto
          -631 -28 callgsubr
          endchar
        </CharString>
        <CharString name="j">
          -445 -223 67 671 43 308 -20 hstemhm
          -50 294 -62 62 50 225 hintmask 11110100
          294 -16 rmoveto
          -69 -26 -37 -24 -13 vhcurveto
          650 50 vlineto
          -268 hmoveto
          66 hlineto
          -33 callgsubr
          -501 vlineto
          -60 -21 -21 -40 -79 -43 91 108 -10 vhcurveto
          -39 -243 47 47 hlineto
          -46 51 93 -24 95 hhcurveto
          151 132 61 136 hvcurveto
          584 -493 vlineto
          524 182 rmoveto
          13 callgsubr
          vhcurveto
          hintmask 11101100
          -70 callsubr
          hvcurveto
          12 callsubr
        </CharString>
        <CharString name="k">
          191 -18 callgsubr
          119 43 hstem
          204 63 50 225 vstem
          542 720 rmoveto
          -492 -43 65 hlineto
          49 40 -42 -48 hvcurveto
          -455 vlineto
          -65 -40 -24 -49 vhcurveto
          -65 -43 606 43 -24 hlineto
          -50 -40 24 65 hvcurveto
          85 vlineto
          17 6 18 27 vhcurveto
          26 hlineto
          225 -252 rlineto
          435 43 -75 hlineto
          0 -228 268 -25 31 vhcurveto
          -8 10 -4 11 8 vvcurveto
          14 13 14 11 7 vhcurveto
          15 26 169 94 68 hhcurveto
          53 43 -468 -43 hlineto
          87 31 -6 -29 -28 -78 -42 -78 -41 hvcurveto
          -34 -65 -65 -36 -19 hhcurveto
          -18 hlineto
          -40 -6 24 23 hvcurveto
          -225 -303 rmoveto
          -50 634 50 hlineto
          606 -634 rmoveto
          -68 hlineto
          -196 232 rlineto
          69 hlineto
          endchar
        </CharString>
        <CharString name="l">
          -361 0 43 634 43 hstem
          206 43 callsubr
          543 720 -17 callgsubr
          endchar
        </CharString>
        <CharString name="less">
          108 -21 504 -20 hstem
          619 158 28 callgsubr
          endchar
        </CharString>
        <CharString name="lessequal">
          0 80 573 -20 hstem
          626 220 28 callgsubr
          48 -69 1 callsubr
        </CharString>
        <CharString name="logicalnot">
          129 -21 190 80 hstem
          562 78 vstem
          100 378 rmoveto
          -80 462 -190 78 270 vlineto
          endchar
        </CharString>
        <CharString name="lozenge">
          -150 -199 44 433 45 433 45 hstem
          890 279 rmoveto
          44 vlineto
          -162 478 rlineto
          -512 hlineto
          -166 -478 rlineto
          -44 vlineto
          162 -478 rlineto
          512 hlineto
          -524 477 rmoveto
          83 callgsubr
          -82 hlineto
          82 callgsubr
          705 hmoveto
          -151 -433 rlineto
          -143 hlineto
          82 callgsubr
          221 45 rmoveto
          82 callgsubr
          82 hlineto
          83 callgsubr
          -568 hmoveto
          147 433 rlineto
          126 hlineto
          83 callgsubr
          endchar
        </CharString>
        <CharString name="lslash">
          -361 0 43 634 43 hstemhm
          58 210 -62 -49 callgsubr
          hintmask 11011000
          543 56 callsubr
          -249 vlineto
          hintmask 11101000
          -148 -47 rlineto
          -80 vlineto
          hintmask 11011000
          148 47 rlineto
          -127 vlineto
          -66 -41 -23 -49 -62 callgsubr
          -40 callgsubr
          236 vlineto
          153 50 rlineto
          80 vlineto
          -153 -50 rlineto
          -224 -405 rmoveto
          -51 634 51 hlineto
          endchar
        </CharString>
        <CharString name="m">
          759 48 callsubr
          218 -49 callgsubr
          218 -49 callgsubr
          hintmask 1101111110000000
          1108 367 rmoveto
          54 36 53 35 47 hhcurveto
          54 28 -31 -61 -44 callsubr
          -133 -116 -55 -95 -68 vhcurveto
          105 -3 -72 45 -163 hhcurveto
          -133 -116 -55 -95 -68 hvcurveto
          hintmask 1011111110000000
          128 56 callgsubr
          -57 -32 -32 -58 vhcurveto
          -66 -43 619 43 -36 hlineto
          24 callgsubr
          235 vlineto
          hintmask 1101111110000000
          54 36 53 35 47 hhcurveto
          54 28 -31 -61 hvcurveto
          -364 463 43 -36 vlineto
          24 callgsubr
          -779 73 callsubr
          hlineto
          hintmask 1011111110000000
          67 callsubr
          vlineto
          431 -29 -6 callgsubr
          557 7 -4 callgsubr
          58 -28 45 -47 19 vhcurveto
          endchar
        </CharString>
        <CharString name="macron">
          -585 630 134 -114 -20 hstemhm
          hintmask 10000000
          50 630 rmoveto
          405 134 -405 hlineto
          hintmask 01000000
          115 -114 rmoveto
          -54 94 54 hlineto
          endchar
        </CharString>
        <CharString name="minus">
          298 85 callgsubr
          378 1 callsubr
        </CharString>
        <CharString name="mu">
          204 -199 44 155 43 -16 76 412 44 hstemhm
          186 63 51 210 -210 223 248 47 callgsubr
          hintmask 1011110110000000
          510 53 rmoveto
          -17 18 37 -9 25 hhcurveto
          68 57 37 65 56 hvcurveto
          hintmask 1101110110000000
          -129 -11 callsubr
          -49 -41 41 48 hvcurveto
          427 -493 -44 -36 callgsubr
          -234 vlineto
          hintmask 1011101110000000
          -45 -35 -58 -44 -62 hhcurveto
          -83 -10 74 48 hvcurveto
          334 -493 -44 -36 callgsubr
          -467 68 callgsubr
          105 -25 133 vhcurveto
          296 44 -81 hlineto
          hintmask 1101110110000000
          -93 -36 44 67 hvcurveto
          -329 572 6 callsubr
          -456 -61 callgsubr
          456 -74 callsubr
          endchar
        </CharString>
        <CharString name="multiply">
          122 -21 474 -20 hstem
          133 520 rmoveto
          182 -182 -182 -182 55 -55 182 182 182 -182 55 55 -182 182 182 182 -55 55 -182 -182 -182 182 rlineto
          endchar
        </CharString>
        <CharString name="n">
          234 48 callsubr
          248 -49 callgsubr
          hintmask 10111110
          -26 callgsubr
          hintmask 11011110
          -19 callgsubr
          hintmask 10111110
          237 56 -6 callgsubr
          endchar
        </CharString>
        <CharString name="nine">
          -3 -22 40 -4 -21 221 48 362 40 hstemhm
          57 63 47 210 316 65 56 216 hintmask 10111111
          179 27 rmoveto
          0 125 -49 214 274 238 127 208 224 -243 127 -241 -240 -249 -95 -151 -150 184 -54 159 158 135 62 0 -164 -53 -94 -152 -153 -156 140 0 vhcurveto
          -35 -165 35 hlineto
          515 325 rmoveto
          0 -100 -56 -90 -90 -37 79 95 60 7 128 156 144 10 -125 -117 vhcurveto
          -15 -354 rmoveto
          0 79 115 169 vvcurveto
          217 -48 69 0 vhcurveto
          3 2 rlineto
          2 2 99 -93 -197 vvcurveto
          -197 -133 -90 0 vhcurveto
          -445 239 rmoveto
          hintmask 01111111
          -4 1 -112 27 120 vvcurveto
          121 114 33 0 vhcurveto
          1 -3 rlineto
          4 2 -72 -48 -105 vvcurveto
          -105 70 -40 0 vhcurveto
          endchar
        </CharString>
        <CharString name="notequal">
          -1 -21 210 80 140 80 182 -20 hstem
          640 488 rmoveto
          -151 hlineto
          104 182 rlineto
          -52 hlineto
          -104 -182 rlineto
          -337 -80 292 hlineto
          -80 -140 rlineto
          -212 -80 166 hlineto
          -119 -210 rlineto
          52 hlineto
          119 210 rlineto
          322 80 -276 hlineto
          80 140 rlineto
          196 hlineto
          endchar
        </CharString>
        <CharString name="ntilde">
          80 callsubr
          -65 43 55 -21 callsubr
          216 62 51 224 248 -49 callgsubr
          hintmask 1011001011110000
          -26 callgsubr
          76 callsubr
          -19 callgsubr
          hintmask 1011001011110000
          237 56 -6 callgsubr
          150 214 rmoveto
          -28 -33 -54 -18 -46 -88 callsubr
        </CharString>
        <CharString name="numbersign">
          -250 -29 -21 205 80 180 80 205 -20 hstem
          140 495 rmoveto
          -21 -80 rlineto
          134 hlineto
          -48 -180 rlineto
          -134 hlineto
          -21 -80 rlineto
          134 62 callgsubr
          220 62 callgsubr
          135 hlineto
          21 80 rlineto
          -135 hlineto
          48 180 rlineto
          136 hlineto
          21 80 rlineto
          -135 65 callgsubr
          -220 65 callgsubr
          58 -80 rmoveto
          220 hlineto
          -48 -180 rlineto
          -220 hlineto
          endchar
        </CharString>
        <CharString name="o">
          31 callsubr
          hstem
          -27 callgsubr
          vstem
          -107 callsubr
          endchar
        </CharString>
        <CharString name="oacute">
          -82 callsubr
          37 363 -68 callsubr
          hintmask 10111111
          -98 callgsubr
        </CharString>
        <CharString name="ocircumflex">
          31 callsubr
          44 70 callgsubr
          -27 callgsubr
          hintmask 11101111
          -107 callsubr
          -301 491 -84 callsubr
          hintmask 11011111
          -46 callgsubr
        </CharString>
        <CharString name="odieresis">
          31 callsubr
          241 -20 hstemhm
          40 63 -63 181 -50 240 -227 40 callgsubr
          -225 63 69 238 hintmask 1111010011000000
          -107 callsubr
          hintmask 1111001100000000
          225 427 -67 callgsubr
        </CharString>
        <CharString name="oe">
          531 -22 48 173 60 277 44 hstem
          40 55 callsubr
          278 62 -8 callgsubr
          vstem
          858 46 rmoveto
          -45 111 119 -23 116 hhcurveto
          92 86 15 30 75 hvcurveto
          72 27 52 34 19 vvcurveto
          11 -10 9 -13 vhcurveto
          -25 -113 -97 -195 hhcurveto
          -98 -50 52 121 -14 hvcurveto
          101 hlineto
          254 143 68 122 118 -137 73 -221 -130 -132 -26 -41 -73 hvcurveto
          44 -88 -112 23 -126 hhcurveto
          -292 -210 -125 -175 -167 224 -135 277 115 111 24 44 91 hvcurveto
          -169 233 rmoveto
          -185 -39 -72 -100 -100 -39 72 185 185 39 72 100 100 39 -72 -185 vhcurveto
          370 hmoveto
          180 35 77 82 65 47 -56 -78 -82 -53 -61 -71 vhcurveto
          -105 hlineto
          -240 19 -20 callsubr
          -648 2 -20 callsubr
          1085 265 rmoveto
          91 -25 55 -55 -63 vvcurveto
          -66 -55 -58 -86 -26 vhcurveto
          -3 9 rlineto
          57 29 36 54 58 vvcurveto
          58 -36 50 -61 27 vhcurveto
          endchar
        </CharString>
        <CharString name="ogonek">
          -524 -224 48 198 -20 hstem
          50 210 vstem
          516 -80 rmoveto
          -39 hlineto
          -53 -21 -65 -43 -53 hhcurveto
          -43 -35 21 49 55 43 44 88 13 hvcurveto
          16 vlineto
          -170 -11 -171 -47 -98 vvcurveto
          -79 125 -11 108 95 87 16 19 51 vhcurveto
          -331 145 rmoveto
          -31 -18 -14 -26 -31 vvcurveto
          -29 26 -36 28 -12 vhcurveto
          -2 -5 rlineto
          -65 8 -37 32 37 vvcurveto
          40 40 29 52 16 vhcurveto
          endchar
        </CharString>
        <CharString name="ograve">
          -82 callsubr
          -267 363 -47 callsubr
          hintmask 10111111
          -85 callgsubr
        </CharString>
        <CharString name="one">
          -165 21 callgsubr
          337 66 callsubr
          868 607 rmoveto
          43 -491 vlineto
          -320 -200 42 -51 259 179 rlineto
          0 -21 -52 -93 vvcurveto
          -281 vlineto
          -80 -49 -29 -59 vhcurveto
          -78 -43 717 43 -78 hlineto
          -59 -49 29 80 hvcurveto
          345 vlineto
          60 49 50 59 vhcurveto
          -321 -564 29 callgsubr
        </CharString>
        <CharString name="onehalf">
          75 -1 -21 43 -21 670 57 callsubr
          542 204 -124 124 hintmask 11101010
          375 -43 callgsubr
          145 -44 callgsubr
          872 -262 -49 callsubr
          hintmask 11101001
          17 callsubr
        </CharString>
        <CharString name="onequarter">
          75 -1 -21 22 126 544 57 callsubr
          450 38 callsubr
          hintmask 11101010
          413 -43 callgsubr
          107 -44 callgsubr
          904 -250 -50 callgsubr
          hintmask 11101001
          40 -300 -40 hlineto
          endchar
        </CharString>
        <CharString name="onesuperior">
          -581 383 -21 360 -20 hstemhm
          180 38 callsubr
          hintmask 11100000
          477 691 rmoveto
          -64 callgsubr
          hintmask 11010000
          40 -299 -40 hlineto
          endchar
        </CharString>
        <CharString name="ordfeminine">
          -307 294 73 -59 40 162 157 -137 137 -98 -20 115 -20 hstemhm
          50 250 -175 175 155 207 -137 137 hintmask 1001000101000000
          448 634 rmoveto
          66 -15 11 -35 -25 vvcurveto
          -225 -32 225 vlineto
          22 -6 31 -40 16 vhcurveto
          -207 -316 rmoveto
          -103 -54 55 55 54 52 54 106 hvcurveto
          -5 vlineto
          -77 -39 -52 -51 -52 39 -53 76 hvcurveto
          hintmask 1000111010000000
          -98 252 rmoveto
          23 36 82 39 89 hhcurveto
          98 8 -57 -29 hvcurveto
          -69 -57 2 -98 hhcurveto
          -130 -51 -61 -64 -64 49 -64 131 76 85 22 37 64 hvcurveto
          hintmask 0110001010000000
          -45 328 40 -65 vlineto
          -30 -26 14 40 hvcurveto
          166 vlineto
          81 -79 18 -168 -76 -109 -13 -22 -78 vhcurveto
          hintmask 1000111010000000
          -9 32 rlineto
          -31 -95 hlineto
          255 -202 rmoveto
          -47 -20 35 33 hvcurveto
          hintmask 1010001010000000
          34 23 41 45 27 30 -1 -2 30 vhcurveto
          -118 vlineto
          -13 -28 -35 -9 -25 hhcurveto
          endchar
        </CharString>
        <CharString name="ordmasculine">
          -372 295 43 288 44 hstemhm
          30 233 -148 148 193 52 40 140 hintmask 11101100
          688 483 rmoveto
          102 -128 85 -201 -200 -129 -85 -102 -104 148 -84 181 182 147 84 104 vhcurveto
          -329 143 rmoveto
          77 20 -49 -95 -96 -36 -48 -61 -61 -35 48 96 95 21 49 75 hvcurveto
          -103 hmoveto
          hintmask 11011100
          -88 -25 -53 -57 -61 vvcurveto
          -61 58 -56 83 -26 vhcurveto
          -5 vlineto
          -105 23 -76 58 67 vvcurveto
          67 68 58 113 22 vhcurveto
          292 -147 rmoveto
          -62 -29 -39 -33 -35 vhcurveto
          13 41 9 47 48 vvcurveto
          49 -9 46 -17 45 vhcurveto
          37 -37 29 -41 -62 vvcurveto
          endchar
        </CharString>
        <CharString name="oslash">
          9 -150 -21 149 44 514 44 149 -20 hstem
          -27 callgsubr
          vstem
          379 -171 rmoveto
          68 155 rlineto
          -4 33 34 -2 36 hhcurveto
          -13 callsubr
          143 -142 110 -215 35 hvcurveto
          71 161 rlineto
          -52 hlineto
          -68 -154 rlineto
          3 -33 -34 2 -36 hhcurveto
          -13 callgsubr
          -136 150 -114 208 -38 hvcurveto
          -71 -163 rlineto
          362 450 rmoveto
          -186 -39 -71 -100 -32 -25 7 15 -20 vhcurveto
          187 427 rlineto
          20 -41 9 -63 -88 vvcurveto
          -278 hmoveto
          186 39 71 100 31 25 -7 -16 20 vhcurveto
          -186 -426 rlineto
          -20 41 -9 62 89 vvcurveto
          -240 1 -94 callsubr
          538 -83 callsubr
          endchar
        </CharString>
        <CharString name="otilde">
          31 callsubr
          -44 111 63 callgsubr
          -27 callgsubr
          76 callsubr
          -107 callsubr
          138 414 -69 callsubr
        </CharString>
        <CharString name="p">
          100 71 callsubr
          453 43 -43 65 hstemhm
          58 callgsubr
          hintmask 11011111
          1 callgsubr
          hintmask 11101111
          68 55 callgsubr
          40 -23 -66 hvcurveto
          -494 -33 callsubr
          672 51 hlineto
          423 -467 -3 callgsubr
        </CharString>
        <CharString name="paragraph">
          27 -199 43 262 155 319 70 108 43 hstem
          22 66 67 183 192 67 64 259 vstem
          963 801 rmoveto
          -279 -114 -56 -95 -31 hvcurveto
          -201 hlineto
          -216 -100 -135 -136 -136 101 -137 182 76 80 31 56 69 hvcurveto
          -241 -28 callgsubr
          -500 -540 rmoveto
          -88 -37 75 75 81 31 88 95 hvcurveto
          66 -309 hlineto
          -7 -24 -23 -3 -20 hhcurveto
          198 -230 45 callsubr
          -506 -336 rmoveto
          -70 33 -92 84 -55 vhcurveto
          -3 -10 rlineto
          -114 46 -67 90 91 vvcurveto
          92 67 89 114 46 vhcurveto
          3 -9 rlineto
          -84 -56 -33 -93 -69 vvcurveto
          endchar
        </CharString>
        <CharString name="parenleft">
          -285 -96 -21 854 -20 hstem
          120 63 73 242 vstem
          498 312 rmoveto
          355 186 16 0 vhcurveto
          54 vlineto
          -350 -53 -214 -158 -216 vvcurveto
          -216 214 -158 350 -53 vhcurveto
          54 vlineto
          0 -186 16 359 vvcurveto
          -315 -2 rmoveto
          162 144 125 212 72 vhcurveto
          3 -7 rlineto
          -159 -72 -127 -121 -159 vvcurveto
          -159 127 -121 159 -72 vhcurveto
          -3 -7 rlineto
          -212 72 -144 125 162 vvcurveto
          endchar
        </CharString>
        <CharString name="parenright">
          -290 -96 -21 854 -20 hstem
          301 62 73 243 vstem
          301 308 rmoveto
          -355 -186 -16 0 vhcurveto
          -54 vlineto
          350 53 214 158 216 vvcurveto
          216 -214 158 -350 53 vhcurveto
          -54 vlineto
          0 186 -16 -359 vvcurveto
          135 hmoveto
          -186 -110 -114 -58 -39 vhcurveto
          -7 6 rlineto
          43 41 59 93 199 vvcurveto
          199 -59 93 -43 41 vhcurveto
          7 6 rlineto
          58 -39 110 -114 -186 vvcurveto
          endchar
        </CharString>
        <CharString name="partialdiff">
          54 -22 43 450 44 243 43 hstemhm
          29 349 -246 246 366 94 -55 55 56 211 hintmask 11110011
          775 500 rmoveto
          9 -48 -52 6 -58 hhcurveto
          -341 -247 -141 -158 -134 202 -104 272 411 191 254 216 212 -213 141 -211 -171 -64 -28 -50 -151 hvcurveto
          -22 -105 rlineto
          34 hlineto
          0 108 140 218 113 37 -112 -77 -22 -3 -23 -5 -24 vhcurveto
          -167 -29 rmoveto
          hintmask 11101101
          99 37 -43 -82 -29 -5 -34 -8 -39 hvcurveto
          -147 -31 -79 -76 -109 hhcurveto
          -86 -48 48 95 24 3 26 6 30 hvcurveto
          147 32 55 80 134 hhcurveto
          -476 -258 rmoveto
          -87 82 -67 122 -30 vhcurveto
          -4 -7 rlineto
          -158 32 -106 70 93 vvcurveto
          121 156 92 204 37 vhcurveto
          1 -5 rlineto
          -126 -31 -171 -77 -141 vvcurveto
          707 448 rmoveto
          35 -51 20 -68 -78 vvcurveto
          -161 -81 -152 -103 -93 vhcurveto
          -3 4 rlineto
          79 151 52 187 167 vvcurveto
          31 -1 30 -3 29 vhcurveto
          endchar
        </CharString>
        <CharString name="percent">
          75 -29 callsubr
          hintmask 1010101010010100
          33 callsubr
          hintmask 1011011010010100
          -85 callsubr
          hintmask 0110100100110100
          -70 callgsubr
          hintmask 1010101001001010
          -100 callsubr
          endchar
        </CharString>
        <CharString name="period">
          -496 -1 42 callsubr
          501 103 rmoveto
          -99 callsubr
          endchar
        </CharString>
        <CharString name="periodcentered">
          -496 202 42 callsubr
          501 306 rmoveto
          -99 callsubr
          endchar
        </CharString>
        <CharString name="perthousand">
          639 -29 callsubr
          -110 170 -40 -1 callgsubr
          -110 110 hintmask 101010101001010010100000
          33 callsubr
          hintmask 101101101001010010100000
          -85 callsubr
          hintmask 011010010011010010100000
          -70 callgsubr
          hintmask 011010100100101010100000
          -100 callsubr
          674 1 rmoveto
          -85 callsubr
          hintmask 101010101001000101010000
          -100 callsubr
          endchar
        </CharString>
        <CharString name="pi">
          263 -20 46 -26 0 callsubr
          hstemhm
          71 callgsubr
          210 -49 callgsubr
          hintmask 10111110
          606 425 rmoveto
          48 41 42 49 vhcurveto
          120 -347 hlineto
          -118 81 -70 293 31 31 2 2 28 vhcurveto
          -4 43 rlineto
          -7 -11 -1 -10 hhcurveto
          -52 -43 24 70 hvcurveto
          395 50 callgsubr
          -294 vlineto
          hintmask 01111110
          75 callsubr
          hlineto
          -224 43 12 callgsubr
          547 -461 rmoveto
          -24 10 -27 30 84 vvcurveto
          337 51 vlineto
          endchar
        </CharString>
        <CharString name="plus">
          89 -21 230 64 callsubr
          608 33 callgsubr
          endchar
        </CharString>
        <CharString name="plusminus">
          0 80 280 64 callsubr
          670 33 callgsubr
          230 -590 1 callsubr
        </CharString>
        <CharString name="product">
          263 -199 43 914 43 hstem
          71 callgsubr
          210 43 callsubr
          1153 -199 rmoveto
          957 50 callgsubr
          -867 337 867 vlineto
          48 41 42 49 vhcurveto
          120 -957 hlineto
          -434 43 rmoveto
          -51 914 51 hlineto
          496 -914 rmoveto
          914 51 -914 vlineto
          endchar
        </CharString>
        <CharString name="q">
          56 71 callsubr
          475 43 hstem
          50 63 68 239 253 47 callgsubr
          vstem
          673 -200 rmoveto
          -21 callgsubr
          648 -29 vlineto
          -21 -59 rlineto
          30 -136 -195 29 -132 hhcurveto
          -276 -171 -114 -178 -210 166 -100 203 94 94 25 58 66 hvcurveto
          -127 1 rmoveto
          -99 -27 105 147 147 46 76 80 81 46 -76 -147 hvcurveto
          -188 vlineto
          -22 -17 -50 -42 -60 hhcurveto
          -365 218 rmoveto
          -120 87 -98 146 -30 vhcurveto
          -2 -10 rlineto
          -175 21 -124 113 124 vvcurveto
          124 124 103 176 29 vhcurveto
          2 -9 rlineto
          -137 -30 -97 -96 -121 vvcurveto
          482 248 rmoveto
          108 -23 16 -88 -61 vvcurveto
          -513 -51 513 vlineto
          36 -10 103 -65 26 vhcurveto
          endchar
        </CharString>
        <CharString name="question">
          2 -5 -21 343 45 438 -20 hstemhm
          266 74 250 62 -62 134 -8 266 hintmask 11110100
          724 113 30 callgsubr
          hintmask 11111010
          258 496 rmoveto
          141 -239 33 -241 -174 -101 -23 -25 -88 vhcurveto
          65 -42 -264 42 vlineto
          92 29 203 117 135 hhcurveto
          38 46 -12 -180 -155 -68 -36 -86 -25 -42 1 1 -31 hvcurveto
          -45 vlineto
          -1 33 21 -1 25 hhcurveto
          296 269 133 159 hvcurveto
          -593 -496 rmoveto
          -37 15 -32 22 66 callgsubr
          -49 19 -34 38 40 vvcurveto
          40 34 37 49 20 69 callgsubr
          263 460 rmoveto
          75 -20 57 -24 38 vhcurveto
          6 8 rlineto
          31 -13 71 -43 -122 vvcurveto
          -136 -71 -48 -31 -14 vhcurveto
          -6 9 rlineto
          24 42 20 64 83 vvcurveto
          endchar
        </CharString>
        <CharString name="questiondown">
          2 -22 -21 438 45 343 -20 hstemhm
          95 60 65 267 -134 74 -74 134 hintmask 11110010
          811 644 30 callgsubr
          -716 -496 rmoveto
          -141 239 -33 241 174 101 23 25 88 vhcurveto
          -65 42 264 -42 vlineto
          -92 -29 -203 -117 -135 hhcurveto
          -38 -46 12 180 155 68 36 86 25 42 -1 -1 31 hvcurveto
          45 vlineto
          1 -33 -21 1 -25 hhcurveto
          -296 -269 -133 -159 hvcurveto
          381 496 rmoveto
          -37 15 -32 22 66 callgsubr
          hintmask 11110100
          -49 20 -34 37 40 vvcurveto
          40 34 38 49 19 69 callgsubr
          -142 -627 rmoveto
          -105 20 -74 39 72 vvcurveto
          102 118 90 163 45 vhcurveto
          4 -8 rlineto
          hintmask 11111000
          -129 -47 -91 -86 -96 vvcurveto
          -62 46 -38 70 -22 vhcurveto
          endchar
        </CharString>
        <CharString name="quotedbl">
          -296 74 callsubr
          331 52 vstem
          361 594 rmoveto
          60 -56 33 -100 -36 callsubr
          51 -126 38 3 callsubr
          587 -63 -37 callgsubr
        </CharString>
        <CharString name="quotedblbase">
          -31 -130 -21 150 42 callsubr
          91 404 60 404 vstem
          181 103 -77 callsubr
        </CharString>
        <CharString name="quotedblleft">
          -102 57 callgsubr
          60 65 -65 404 hintmask 11101000
          174 416 rmoveto
          -73 callsubr
          -58 17 -25 35 36 vvcurveto
          36 21 40 62 12 -76 callsubr
          84 -126 rmoveto
          hintmask 11011000
          -55 callgsubr
          380 126 rmoveto
          -73 callsubr
          -58 17 -25 35 36 vvcurveto
          36 21 40 62 12 -76 callsubr
          84 -126 rmoveto
          hintmask 11100100
          -55 callgsubr
          endchar
        </CharString>
        <CharString name="quotedblright">
          -102 54 callsubr
          hstem
          60 404 60 404 vstem
          150 544 -77 callsubr
        </CharString>
        <CharString name="quoteleft">
          -566 57 callgsubr
          hintmask 11100000
          174 416 rmoveto
          -73 callsubr
          -58 17 -25 35 36 vvcurveto
          36 21 40 62 12 -76 callsubr
          84 -126 rmoveto
          hintmask 11010000
          -55 callgsubr
          endchar
        </CharString>
        <CharString name="quoteright">
          -566 54 callsubr
          hstem
          60 404 vstem
          150 544 -76 callgsubr
        </CharString>
        <CharString name="quotesinglbase">
          -495 -130 -21 150 42 callsubr
          91 404 vstem
          181 103 -76 callgsubr
        </CharString>
        <CharString name="quotesingle">
          -679 74 callsubr
          vstem
          361 594 -37 callgsubr
        </CharString>
        <CharString name="r">
          -89 -18 callgsubr
          22 -20 -7 callgsubr
          -224 371 hintmask 11111000
          832 580 rmoveto
          -102 -101 -61 -135 -76 hvcurveto
          174 56 callgsubr
          -66 -41 -23 -49 vhcurveto
          -66 -43 689 43 -106 hlineto
          -40 callgsubr
          154 vlineto
          25 48 45 58 43 32 rrcurveto
          -82 23 77 -40 74 hhcurveto
          82 79 48 91 77 -75 62 -94 hvcurveto
          -503 -537 12 callgsubr
          417 -71 rmoveto
          -38 12 -34 21 -27 vhcurveto
          hintmask 11110100
          35 callsubr
        </CharString>
        <CharString name="radical">
          -18 81 callsubr
          200 43 hstem
          953 801 rmoveto
          -265 -594 -119 180 rlineto
          -15 22 -8 25 21 vvcurveto
          34 19 26 46 vhcurveto
          36 43 -604 -43 59 hlineto
          356 -534 rlineto
          191 hlineto
          346 777 rlineto
          245 43 hlineto
          -690 -777 rmoveto
          -67 hlineto
          -109 165 -109 161 -108 165 rrcurveto
          67 hlineto
          endchar
        </CharString>
        <CharString name="registered">
          -315 192 156 -17 140 -22 142 -17 148 hstemhm
          45 309 -117 117 100 142 -142 276 hintmask 10011001
          -50 callsubr
          hintmask 10101010
          402 -8 rmoveto
          51 2 63 8 60 vvcurveto
          64 -62 8 -44 vhcurveto
          -322 hlineto
          hintmask 10010110
          -17 36 vlineto
          18 15 -20 -24 hvcurveto
          -138 vlineto
          -32 -15 -12 -18 vhcurveto
          -36 hlineto
          hintmask 01011010
          -17 241 vlineto
          hintmask 10101010
          17 -22 vlineto
          -18 -15 12 32 hvcurveto
          30 vlineto
          19 0 9 9 7 9 -17 0 vhcurveto
          hintmask 01011010
          60 -102 rlineto
          178 hlineto
          hintmask 10101010
          17 -35 vlineto
          -44 75 -30 4 -18 10 -8 8 rlinecurve
          -128 108 rmoveto
          hintmask 01011010
          12 7 9 8 vhcurveto
          36 hlineto
          16 33 -15 -41 -35 -26 -12 -25 -25 -24 11 14 hvcurveto
          endchar
        </CharString>
        <CharString name="ring">
          -716 597 -21 262 -20 hstem
          29 109 96 111 vstem
          138 706 46 callgsubr
          34 callsubr
          -25 callsubr
        </CharString>
        <CharString name="s">
          79 callgsubr
          48 callgsubr
          hintmask 10101100
          16 callsubr
          hintmask 01110100
          -244 43 vlineto
          22 49 rlineto
          hintmask 10101010
          -63 callsubr
          hintmask 10110100
          49 callgsubr
          endchar
        </CharString>
        <CharString name="scaron">
          79 callgsubr
          53 146 48 callgsubr
          hintmask 10110110
          16 callsubr
          hintmask 01111010
          -244 43 vlineto
          22 49 rlineto
          hintmask 10110101
          -63 callsubr
          hintmask 10111010
          49 callgsubr
          529 182 -66 callsubr
        </CharString>
        <CharString name="section">
          15 -199 41 823 -20 116 40 hstemhm
          95 57 20 214 356 269 -167 167 hintmask 11111100
          1011 398 rmoveto
          270 -625 -69 112 vvcurveto
          40 46 10 58 120 226 -71 -97 100 vhcurveto
          44 191 -45 hlineto
          -4 -11 -7 -14 -4 -18 rrcurveto
          29 -111 -139 31 -185 hhcurveto
          -148 -242 -3 -196 -99 128 -56 143 -40 hvcurveto
          -10 vlineto
          -132 -9 -139 -38 -148 -221 647 -7 -93 vvcurveto
          -33 -74 -6 -64 -219 -211 140 81 -35 vhcurveto
          -45 -244 45 hlineto
          23 49 rlineto
          -41 137 124 -26 182 hhcurveto
          247 159 57 140 116 -118 54 -132 32 hvcurveto
          10 vlineto
          155 21 95 59 108 vvcurveto
          -839 -133 68 callsubr
          hintmask 11111010
          -5 callgsubr
          7 400 68 callsubr
          -5 callgsubr
          hintmask 11111100
          577 -384 rmoveto
          -33 -74 -6 -64 -43 -175 7 62 40 46 10 58 22 230 -18 -62 vhcurveto
          endchar
        </CharString>
        <CharString name="semicolon">
          -495 -130 -21 150 -21 656 -20 hstemhm
          91 404 -314 314 hintmask 11101000
          181 103 rmoveto
          -103 callsubr
          116 126 rmoveto
          hintmask 11110000
          -98 callsubr
          211 279 rmoveto
          -99 callsubr
          endchar
        </CharString>
        <CharString name="seven">
          16 0 43 268 44 250 45 hstem
          48 338 54 212 vstem
          48 650 rmoveto
          -250 28 vlineto
          197 176 223 25 100 hhcurveto
          33 19 -3 0 0 -113 -106 -88 -158 hvcurveto
          -184 -44 161 hlineto
          -46 -92 -35 -107 -112 vvcurveto
          483 43 -148 hlineto
          -3 26 -2 23 24 vvcurveto
          74 15 65 23 56 vhcurveto
          169 44 -149 hlineto
          89 169 158 81 0 vvcurveto
          92 45 hlineto
          -910 -129 rmoveto
          -41 -31 rlineto
          115 41 vlineto
          301 -562 rmoveto
          -54 hlineto
          312 305 265 0 vhcurveto
          54 hlineto
          0 -305 -266 -311 vvcurveto
          endchar
        </CharString>
        <CharString name="six">
          7 -1 -21 395 48 209 40 hstemhm
          57 55 56 226 316 53 48 132 -132 229 hintmask 11111101
          909 607 rmoveto
          0 -126 63 -213 -275 -238 -141 -208 -207 244 -136 240 240 259 72 167 135 -194 69 -158 -159 -135 -63 0 164 53 108 153 152 157 -154 0 vhcurveto
          34 167 -34 hlineto
          -516 -325 rmoveto
          0 101 55 90 90 36 -87 -80 -55 -1 -134 -161 -148 -7 134 126 vhcurveto
          -71 308 rmoveto
          0 -154 -94 -169 vvcurveto
          -169 134 -95 0 vhcurveto
          -3 -5 rlineto
          0 -187 72 197 vvcurveto
          197 207 72 0 vhcurveto
          392 -203 rmoveto
          0 100 -33 -144 vvcurveto
          hintmask 11111110
          -144 -98 -39 0 vhcurveto
          -3 4 rlineto
          0 53 53 126 vvcurveto
          126 -54 47 0 vhcurveto
          endchar
        </CharString>
        <CharString name="slash">
          80 callgsubr
          132 -52 rmoveto
          400 722 rlineto
          -82 hlineto
          -400 -722 rlineto
          endchar
        </CharString>
        <CharString name="space">
          -640 endchar
        </CharString>
        <CharString name="sterling">
          19 -22 54 -54 83 124 42 108 50 234 52 hstemhm
          45 96 10 67 43 215 -47 59 48 236 -236 434 hintmask 1011111011000000
          65 335 rmoveto
          199 hlineto
          43 -40 47 -37 33 -37 rrcurveto
          hintmask 1011111100100000
          4 -21 -21 2 -21 hhcurveto
          -182 -97 -73 -71 -104 206 -1 85 109 182 3 75 90 hvcurveto
          -42 97 89 -36 67 hhcurveto
          98 26 72 55 35 -11 40 -20 hvcurveto
          -29 -3 -119 -116 hhcurveto
          -58 -56 11 17 -54 hvcurveto
          16 23 9 29 34 vvcurveto
          63 -33 52 -44 45 vhcurveto
          163 50 -218 hlineto
          hintmask 1011111010100000
          -79 65 -85 49 50 vvcurveto
          32 23 38 92 93 96 -26 -140 141 vhcurveto
          49 218 hlineto
          hintmask 0111111101000000
          -48 -61 hlineto
          0 -154 61 -191 -192 -234 -25 -138 -43 26 -41 37 -39 vhcurveto
          -149 hlineto
          259 -200 rmoveto
          29 33 -5 -8 34 hvcurveto
          5 -13 4 -12 -12 vvcurveto
          -67 -98 -36 -81 -58 -51 19 38 56 83 40 100 vhcurveto
          72 -149 rmoveto
          32 13 60 35 76 112 -270 148 103 vvcurveto
          50 43 25 23 9 72 callsubr
          -12 -13 -14 -24 -30 -81 275 -140 -150 vvcurveto
          hintmask 1011111100100000
          -76 -59 -49 -79 -9 vhcurveto
          endchar
        </CharString>
        <CharString name="summation">
          86 -199 43 727 -20 207 43 hstem
          564 405 rmoveto
          38 -39 -269 -522 rlineto
          -57 hlineto
          -58 914 rmoveto
          235 -240 rlineto
          19 -20 18 -24 -23 vvcurveto
          -14 -4 -15 -10 -19 vhcurveto
          -185 -360 rlineto
          -177 -91 -13 -22 -61 hhcurveto
          -76 -43 1076 78 callgsubr
          hlineto
          -39 callsubr
          -67 hlineto
          244 423 -481 491 rlineto
          306 hlineto
          247 135 -100 -87 65 hvcurveto
          77 callgsubr
          -1076 -43 hlineto
          endchar
        </CharString>
        <CharString name="t">
          -337 -22 99 438 43 112 -20 hstem
          179 47 callgsubr
          vstem
          737 104 rmoveto
          -18 -38 -37 -9 -32 hhcurveto
          -66 -48 40 88 hvcurveto
          310 227 43 -227 112 -208 vlineto
          0 -106 -112 -142 vhcurveto
          -40 -43 69 hlineto
          49 41 -23 -66 hvcurveto
          -290 68 callgsubr
          105 -25 133 139 114 39 47 83 vhcurveto
          -579 465 24 callsubr
          -32 -58 vvcurveto
          -290 -61 callgsubr
          290 vlineto
          51 -28 30 -42 15 vhcurveto
          endchar
        </CharString>
        <CharString name="thorn">
          100 71 callsubr
          442 76 97 43 hstem
          58 callgsubr
          vstem
          1 callgsubr
          230 55 callgsubr
          40 -23 -66 hvcurveto
          -656 -33 callsubr
          834 51 hlineto
          423 -629 -3 callgsubr
        </CharString>
        <CharString name="three">
          -65 -22 40 612 40 hstemhm
          85 218 295 54 -14 266 -203 203 -169 239 hintmask 11101000
          592 350 rmoveto
          179 17 133 61 71 vvcurveto
          87 -164 84 -259 -165 -94 -41 -46 -102 vhcurveto
          42 -35 -191 35 vlineto
          131 64 137 65 121 hhcurveto
          hintmask 11110100
          111 45 -65 -68 -74 -58 -52 -98 -73 -66 15 73 hvcurveto
          -34 -223 34 hlineto
          68 75 30 89 vhcurveto
          hintmask 11101000
          105 66 -64 -95 -87 -66 -70 -108 -167 -169 87 108 -41 hvcurveto
          -35 -207 35 43 hlineto
          -39 90 146 -32 158 hhcurveto
          hintmask 11110010
          272 221 88 107 93 -145 68 -237 16 hvcurveto
          63 -313 rmoveto
          25 42 7 51 40 vvcurveto
          40 -7 50 -25 42 vhcurveto
          4 5 rlineto
          45 -36 31 -50 -51 vvcurveto
          -51 -32 -51 -44 -35 vhcurveto
          hintmask 11110100
          42 468 rmoveto
          -43 -31 -45 -46 -29 vhcurveto
          -5 3 rlineto
          20 35 13 40 39 vvcurveto
          39 -13 40 -20 35 72 callgsubr
          46 -29 31 -45 -43 vvcurveto
          endchar
        </CharString>
        <CharString name="threequarters">
          75 -1 -21 22 126 446 -20 104 -20 27 -20 27 -20 34 -20 hstemhm
          366 152 -152 191 260 38 callsubr
          hintmask 1110010101000000
          443 -43 callgsubr
          127 613 rmoveto
          hintmask 1110101101000000
          42 callgsubr
          hintmask 1111001011000000
          -48 callgsubr
          hintmask 1111001101000000
          -54 callsubr
          755 -430 -50 callgsubr
          hintmask 1110010100100000
          40 -300 -40 hlineto
          endchar
        </CharString>
        <CharString name="threesuperior">
          -526 371 -21 220 -20 179 -20 hstemhm
          345 152 -152 191 hintmask 11101000
          497 636 rmoveto
          42 callgsubr
          -48 callgsubr
          hintmask 11110000
          -54 callsubr
          endchar
        </CharString>
        <CharString name="tilde">
          -352 613 -21 callsubr
          hintmask 10010000
          617 693 15 callsubr
          hintmask 00101000
          6 callgsubr
          hintmask 10001000
          -9 callgsubr
          hintmask 01001000
          22 callgsubr
          hintmask 10010000
          -61 callsubr
          hintmask 01001000
          21 callsubr
          hintmask 10001000
          -57 callgsubr
          endchar
        </CharString>
        <CharString name="trademark">
          478 308 40 269 40 hstemhm
          40 190 -40 210 -130 130 775 210 -129 129 hintmask 11101100
          416 617 rmoveto
          30 89 -121 0 hvcurveto
          24 161 -519 -161 16 hlineto
          0 88 121 31 vhcurveto
          hintmask 11010100
          10 5 -7 -11 hvcurveto
          -201 vlineto
          -37 -23 -13 -30 vhcurveto
          -66 -40 448 40 -66 hlineto
          -30 -23 13 37 hvcurveto
          201 vlineto
          11 5 7 11 vhcurveto
          hintmask 11101010
          -146 -269 rmoveto
          -40 270 40 hlineto
          945 hmoveto
          41 -270 -41 hlineto
          313 270 rmoveto
          39 -357 vlineto
          -87 -133 -156 133 rlineto
          -340 -40 hlineto
          85 85 -42 -67 hvcurveto
          -46 vlineto
          -84 -95 -30 -68 vhcurveto
          -40 367 40 vlineto
          -68 -95 30 84 hvcurveto
          55 vlineto
          195 -165 rlineto
          28 hlineto
          hintmask 11101100
          52 79 50 79 51 79 rrcurveto
          -192 vlineto
          -36 -23 -13 -28 vhcurveto
          -67 -40 471 40 -90 hlineto
          -29 -24 13 36 hvcurveto
          186 vlineto
          25 24 10 29 vhcurveto
          -429 -209 rmoveto
          -8 hlineto
          -251 208 rlineto
          61 hlineto
          198 -164 rlineto
          endchar
        </CharString>
        <CharString name="two">
          -81 0 42 588 40 hstem
          593 55 47 257 vstem
          913 148 rmoveto
          -211 -63 -237 -42 -371 -1 rrcurveto
          5 vlineto
          300 69 558 163 195 vvcurveto
          158 -303 38 -158 -189 -109 -48 -42 -73 vhcurveto
          54 -35 -272 35 vlineto
          128 24 151 140 155 hhcurveto
          31 112 -13 -150 -203 -373 -147 -170 -51 hvcurveto
          -66 898 230 -35 vlineto
          -315 380 rmoveto
          0 97 -57 -89 vvcurveto
          -168 -171 -47 0 vhcurveto
          -2 5 rlineto
          47 37 79 80 96 vvcurveto
          97 -53 43 0 vhcurveto
          endchar
        </CharString>
        <CharString name="twosuperior">
          -535 383 -21 197 -20 190 -20 hstemhm
          320 204 -124 124 hintmask 11110000
          494 447 -49 callsubr
          hintmask 11101000
          17 callsubr
        </CharString>
        <CharString name="u">
          -2 callgsubr
          hstemhm
          176 20 callsubr
          hintmask 01111110
          761 hmoveto
          -21 callgsubr
          426 -493 -43 -36 callgsubr
          -234 vlineto
          hintmask 10111110
          -79 callsubr
          hintmask 01111110
          -93 callsubr
          endchar
        </CharString>
        <CharString name="uacute">
          -82 callgsubr
          -18 121 -68 callsubr
          -98 callgsubr
        </CharString>
        <CharString name="ucircumflex">
          -2 callgsubr
          66 146 -108 19 callsubr
          hintmask 0111011110000000
          751 hmoveto
          -21 callgsubr
          426 -493 -43 -36 callgsubr
          -234 vlineto
          hintmask 1011011110000000
          -79 callsubr
          hintmask 0111011110000000
          -93 callsubr
          -306 249 -84 callsubr
          hintmask 1010111110000000
          -46 callgsubr
        </CharString>
        <CharString name="udieresis">
          -2 callgsubr
          59 callsubr
          166 63 5 274 -228 182 228 274 -213 47 callgsubr
          hintmask 0111110011000000
          751 hmoveto
          -21 callgsubr
          426 -493 -43 -36 callgsubr
          -234 vlineto
          hintmask 1011101011000000
          -79 callsubr
          hintmask 0111101011000000
          -93 callsubr
          hintmask 1011110100000000
          220 185 rmoveto
          63 -61 52 -77 -75 -61 -52 -63 -63 61 -50 75 77 61 50 63 vhcurveto
          -105 callgsubr
          endchar
        </CharString>
        <CharString name="ugrave">
          -82 callgsubr
          -305 121 -52 callgsubr
          36 hlineto
          -90 callgsubr
        </CharString>
        <CharString name="underscore">
          -80 -100 80 hstem
          910 -20 76 callgsubr
        </CharString>
        <CharString name="v">
          -31 81 callsubr
          hstem
          1049 558 rmoveto
          -75 callgsubr
          -574 -43 69 hlineto
          441 -534 15 callgsubr
          endchar
        </CharString>
        <CharString name="w">
          573 81 callsubr
          hstem
          1653 558 rmoveto
          -75 callgsubr
          -554 -43 49 hlineto
          130 -158 -121 -128 -58 callgsubr
          -574 -43 69 hlineto
          441 -534 rlineto
          32 hlineto
          299 330 273 -330 15 callgsubr
          -634 -32 -37 callsubr
          endchar
        </CharString>
        <CharString name="x">
          -23 -18 callgsubr
          -1 -20 hstemhm
          hintmask 11000000
          605 hmoveto
          462 43 -60 hlineto
          -50 -74 15 75 -56 hvcurveto
          -153 203 170 110 34 22 82 46 65 1 rlinecurve
          32 hlineto
          hintmask 10100000
          42 -420 vlineto
          hintmask 11000000
          -42 19 vlineto
          19 30 -18 -30 -21 -19 -27 -47 -35 hvcurveto
          -130 174 rlineto
          -469 -43 65 hlineto
          65 64 -24 -68 52 hvcurveto
          145 -193 -188 -122 rlineto
          -20 -31 -81 -45 -70 hhcurveto
          -31 -43 444 43 -43 hlineto
          -19 -31 16 30 22 22 32 51 34 hvcurveto
          11 7 rlineto
          -168 331 rmoveto
          63 hlineto
          357 -472 rlineto
          -63 hlineto
          endchar
        </CharString>
        <CharString name="y">
          -32 -200 -21 736 43 hstem
          -95 callsubr
          endchar
        </CharString>
        <CharString name="yacute">
          -32 -200 -21 736 -24 callsubr
          hintmask 11010000
          -95 callsubr
          646 729 -68 callsubr
          hintmask 10110000
          -98 callgsubr
        </CharString>
        <CharString name="ydieresis">
          -32 -200 -21 736 43 263 -20 hstem
          168 283 173 274 vstem
          -95 callsubr
          786 793 rmoveto
          63 -61 52 -77 -75 -61 -52 -63 -63 61 -50 75 77 61 50 63 vhcurveto
          -105 callgsubr
          endchar
        </CharString>
        <CharString name="yen">
          219 0 43 154 50 78 50 232 43 hstem
          427 14 callgsubr
          vstem
          1157 197 rmoveto
          50 -339 44 vlineto
          47 34 rlineto
          292 50 -223 hlineto
          323 232 rlineto
          66 43 -523 -43 50 hlineto
          -65 callgsubr
          234 -232 rlineto
          -234 -50 284 hlineto
          56 -55 rlineto
          -23 -340 -50 340 -46 -35 callgsubr
          46 vlineto
          -258 122 rmoveto
          -276 28 callsubr
          93 hlineto
          endchar
        </CharString>
        <CharString name="z">
          -119 -18 callgsubr
          -48 callsubr
          endchar
        </CharString>
        <CharString name="zcaron">
          -119 -18 callgsubr
          66 146 -48 callsubr
          473 581 -66 callsubr
        </CharString>
        <CharString name="zero">
          -52 -22 41 610 41 hstemhm
          27 335 -240 240 314 61 57 217 hintmask 11011100
          1011 326 rmoveto
          190 -190 154 -302 -301 -191 -154 -190 -193 220 -155 272 272 220 155 193 vhcurveto
          -492 303 rmoveto
          124 33 -104 -201 -200 -59 -105 -98 -99 -58 105 200 201 33 104 124 hvcurveto
          -397 -304 rmoveto
          -121 73 -102 106 -58 vhcurveto
          -2 -5 rlineto
          -139 56 -93 107 7 callgsubr
          93 107 139 56 vhcurveto
          2 -5 rlineto
          -106 -58 -73 -102 -122 vvcurveto
          672 hmoveto
          -108 -46 -108 -55 -59 vhcurveto
          hintmask 11101100
          -5 3 rlineto
          32 80 17 91 101 vvcurveto
          102 -17 91 -32 80 72 callgsubr
          55 -59 46 -108 -109 vvcurveto
          endchar
        </CharString>
      <CharString index="0">
        1322 325 rmoveto
        -60 callgsubr
        -192 291 -155 359 -12 callgsubr
        vhcurveto
        -650 304 rmoveto
        78 callsubr
        -105 -54 callgsubr
        11 callsubr
        hvcurveto
        -288 -589 -104 callgsubr
        return
      </CharString>
      <CharString index="1">
        -36 12 -30 19 -21 -38 callsubr
        -104 callsubr
        return
      </CharString>
      <CharString index="2">
        -84 callgsubr
        -196 -105 callsubr
        456 -105 callsubr
        return
      </CharString>
      <CharString index="3">
        rmoveto
        -184 56 -124 106 7 callgsubr
        126 107 -59 callsubr
        -106 -120 vvcurveto
        -120 95 -105 141 -56 vhcurveto
        650 61 callgsubr
        -106 -51 -103 -75 -69 vhcurveto
        -6 2 rlineto
        34 84 23 98 94 vvcurveto
        94 -23 98 -34 84 vhcurveto
        6 2 rlineto
        75 -69 51 -103 -106 vvcurveto
        return
      </CharString>
      <CharString index="4">
        804 605 rmoveto
        5 callsubr
        hvcurveto
        77 callgsubr
        -1207 73 callgsubr
        61 48 -1 callsubr
        -102 callsubr
        vhcurveto
        -369 -562 0 callgsubr
        return
      </CharString>
      <CharString index="5">
        63 -61 52 -77 -75 -61 -52 -63 -63 61 -50 75 77 61 50 63 vhcurveto
        return
      </CharString>
      <CharString index="6">
        rmoveto
        -120 97 -88 136 -40 vhcurveto
        -2 -10 rlineto
        -175 41 -124 93 124 vvcurveto
        124 124 93 176 39 vhcurveto
        2 -9 rlineto
        -137 -40 -97 -86 -121 vvcurveto
        return
      </CharString>
      <CharString index="7">
        757 14 callsubr
        vlineto
        61 129 -23 -173 hvcurveto
        -237 vlineto
        -77 -43 -66 -212 -84 -31 42 94 vhcurveto
        332 vlineto
        80 48 28 60 vhcurveto
        16 43 -661 -43 38 hlineto
        60 48 -28 -80 hvcurveto
        -322 vlineto
        -81 34 -118 432 348 12 118 124 vhcurveto
        191 vlineto
        173 101 23 99 vhcurveto
        43 vlineto
        return
      </CharString>
      <CharString index="8">
        hmoveto
        -103 callsubr
        return
      </CharString>
      <CharString index="9">
        -96 callgsubr
        endchar
      </CharString>
      <CharString index="10">
        -63 callgsubr
        -204 25 -89 callgsubr
        return
      </CharString>
      <CharString index="11">
        -70 -50 -53 -40 -156 hhcurveto
        -97 callgsubr
        return
      </CharString>
      <CharString index="12">
        -78 callsubr
        90 21 -77 callgsubr
        return
      </CharString>
      <CharString index="13">
        -366 -51 366 -31 callgsubr
        -257 -513 -81 callgsubr
        return
      </CharString>
      <CharString index="14">
        526 199 rmoveto
        -20 callgsubr
        -214 -253 -86 -215 -212 239 -88 278 81 98 17 28 73 hvcurveto
        63 24 61 -23 callgsubr
        -43 callsubr
        return
      </CharString>
      <CharString index="15">
        -46 callsubr
        -91 -48 hvcurveto
        -3 vlineto
        4 -89 -82 3 -60 callsubr
        110 27 47 93 hvcurveto
        return
      </CharString>
      <CharString index="16">
        168 425 rmoveto
        -92 callgsubr
        return
      </CharString>
      <CharString index="17">
        -95 callgsubr
        endchar
      </CharString>
      <CharString index="18">
        rmoveto
        30 10 53 28 18 37 rrcurveto
        64 hlineto
        -17 -25 -44 -49 -104 -5 rrcurveto
        return
      </CharString>
      <CharString index="19">
        65 28 -18 -36 30 hvcurveto
        25 -31 -257 -327 rlineto
        -1 -107 -151 -111 vhcurveto
        -43 436 43 -93 vlineto
        -43 -32 25 44 23 return
      </CharString>
      <CharString index="20">
        800 14 callsubr
        50 vlineto
        -65 callgsubr
        340 -337 rlineto
        -119 -35 callgsubr
        140 vlineto
        439 316 rlineto
        66 43 hlineto
        -763 -344 rmoveto
        -263 28 callsubr
        79 hlineto
        return
      </CharString>
      <CharString index="21">
        hmoveto
        -102 callgsubr
        return
      </CharString>
      <CharString index="22">
        36 vlineto
        -90 callgsubr
      </CharString>
      <CharString index="23">
        -456 -86 callgsubr
        return
      </CharString>
      <CharString index="24">
        18 callsubr
        -41 123 8 callgsubr
        -45 callgsubr
        hintmask 11011111
        -107 callgsubr
        return
      </CharString>
      <CharString index="25">
        -2 callgsubr
        -43 145 110 19 callsubr
        hintmask 0110111110000000
        751 hmoveto
        -21 callgsubr
        426 -493 -43 -36 callgsubr
        -234 vlineto
        hintmask 1010111110000000
        -79 callsubr
        hintmask 0101111110000000
        -93 callsubr
        return
      </CharString>
      <CharString index="26">
        rmoveto
        -168 -86 89 90 87 84 87 171 hvcurveto
        -6 vlineto
        -125 -62 -86 -82 -85 63 -88 123 hvcurveto
        return
      </CharString>
      <CharString index="27">
        -26 callsubr
        -107 callgsubr
        return
      </CharString>
      <CharString index="28">
        rmoveto
        -87 callsubr
        hintmask 0111001111100000
        -94 callgsubr
        return
      </CharString>
      <CharString index="29">
        rmoveto
        -494 -43 66 hlineto
        -81 callsubr
        return
      </CharString>
      <CharString index="30">
        rmoveto
        -104 5 -44 49 -17 25 rrcurveto
        64 hlineto
        18 -37 53 -28 30 -10 rrcurveto
        return
      </CharString>
      <CharString index="31">
        rmoveto
        -103 callsubr
        116 -80 callsubr
        endchar
      </CharString>
      <CharString index="32">
        -455 -43 65 hlineto
        88 51 -40 -51 -25 -11 -27 -25 -26 hvcurveto
        -110 -117 -58 callgsubr
        return
      </CharString>
      <CharString index="33">
        rmoveto
        -37 11 -33 21 -26 vhcurveto
        -45 19 -32 36 41 vvcurveto
        39 32 36 45 19 vhcurveto
        -21 -24 -11 -33 -37 vvcurveto
        return
      </CharString>
      <CharString index="34">
        13 callgsubr
        -70 callsubr
        vhcurveto
        return
      </CharString>
      <CharString index="35">
        -42 callgsubr
        -55 135 -81 -20 211 25 callgsubr
        hintmask 1011001111100000
        -91 callgsubr
        hintmask 0111001111100000
        -75 callsubr
        hintmask 1010011111100000
        -38 callgsubr
        hlineto
        return
      </CharString>
      <CharString index="36">
        64 callgsubr
        145 110 -20 hstemhm
        hintmask 11101000
        -106 callsubr
        return
      </CharString>
      <CharString index="37">
        -100 callsubr
        691 -316 rmoveto
        -85 callsubr
        return
      </CharString>
      <CharString index="38">
        -140 -93 50 -84 hhcurveto
        -14 -14 -2 -3 -14 hvcurveto
        -3 4 rlineto
        16 18 25 14 37 hhcurveto
        return
      </CharString>
      <CharString index="39">
        11 callgsubr
        -43 124 8 callgsubr
        50 63 -8 callgsubr
        hintmask 1110111110000000
        -96 callsubr
        return
      </CharString>
      <CharString index="40">
        -30 callsubr
        hintmask 1110100100000000
        -104 callsubr
        456 -105 callsubr
        endchar
      </CharString>
      <CharString index="41">
        -84 callsubr
        -42 callsubr
        endchar
      </CharString>
      <CharString index="42">
        64 35 -32 -41 -35 -24 -42 -48 -39 hvcurveto
        -59 -48 -129 128 rlineto
        -21 20 -9 24 19 vvcurveto
        26 18 20 30 vhcurveto
        28 43 -749 -43 101 hlineto
        return
      </CharString>
      <CharString index="43">
        31 -273 vlineto
        -177 -111 27 -33 134 93 rlineto
        0 -8 -36 -35 vvcurveto
        -152 vlineto
        -41 -24 -15 -30 vhcurveto
        -46 -30 397 30 -45 hlineto
        -31 -25 15 41 hvcurveto
        187 vlineto
        31 25 25 31 vhcurveto
        -212 hmoveto
        return
      </CharString>
      <CharString index="44">
        -36 54 vlineto
        87 183 0 18 78 hvcurveto
        return
      </CharString>
      <CharString index="45">
        vhcurveto
        -66 -43 649 44 callsubr
        return
      </CharString>
      <CharString index="46">
        vlineto
        -66 21 -33 32 -16 vhcurveto
        -1 -8 rlineto
        -61 11 -42 32 80 vvcurveto
        return
      </CharString>
      <CharString index="47">
        191 -53 callsubr
        -191 return
      </CharString>
      <CharString index="48">
        vhcurveto
        3 -3 rlineto
        -19 return
      </CharString>
      <CharString index="49">
        -156 158 rlineto
        -32 32 -13 29 22 vvcurveto
        28 19 17 25 vhcurveto
        49 43 return
      </CharString>
      <CharString index="50">
        130 50 -49 157 hhcurveto
        139 67 120 53 5 hvcurveto
        return
      </CharString>
      <CharString index="51">
        -104 callgsubr
        endchar
      </CharString>
      <CharString index="52">
        114 92 57 69 69 -92 56 -114 -36 -33 -7 -10 -30 hvcurveto
        95 19 169 14 79 hhcurveto
        37 vlineto
        -255 -111 -117 -104 -84 71 -75 127 hvcurveto
        return
      </CharString>
      <CharString index="53">
        -200 -201 -76 -104 -131 -130 -77 104 201 return
      </CharString>
      <CharString index="54">
        -238 61 -109 62 93 vvcurveto
        22 5 30 8 18 vhcurveto
        7 -1 25 -134 188 -60 187 -44 rlinecurve
        207 -50 193 -11 -138 vvcurveto
        -23 vlineto
        return
      </CharString>
      <CharString index="55">
        rmoveto
        -18 78 183 0 87 hhcurveto
        54 return
      </CharString>
      <CharString index="56">
        273 -250 rlineto
        247 vlineto
        -112 104 112 103 rlineto
        87 vlineto
        -273 -249 rlineto
        235 -119 rmoveto
        -62 vlineto
        -169 153 34 31 rlineto
        return
      </CharString>
      <CharString index="57">
        rmoveto
        29 -102 147 vlineto
        31 25 25 29 vhcurveto
        47 31 -273 hlineto
        -224 -236 rlineto
        -27 200 -12 vlineto
        -41 -25 -15 -30 vhcurveto
        -46 -29 398 29 -47 hlineto
        -29 -25 15 41 hvcurveto
        12 vlineto
        -337 29 rmoveto
        50 59 47 51 50 59 rrcurveto
        0 -6 -32 -29 vvcurveto
        -108 vlineto
        40 203 rmoveto
        return
      </CharString>
      <CharString index="58">
        62 51 224 return
      </CharString>
      <CharString index="59">
        72 34 75 31 63 hhcurveto
        57 24 -30 -36 -38 -31 -27 -50 -38 -33 8 39 hvcurveto
        -27 -126 27 hlineto
        36 38 17 47 55 34 -35 -49 -46 -35 -36 -56 -89 -91 47 59 -22 vhcurveto
        -26 -122 27 24 hlineto
        -21 48 79 -15 84 hhcurveto
        149 123 49 60 48 -70 37 -113 12 hvcurveto
        return
      </CharString>
      <CharString index="60">
        rmoveto
        -106 callgsubr
        -456 -105 callsubr
        endchar
      </CharString>
      <CharString index="61">
        -42 callsubr
        endchar
      </CharString>
      <CharString index="62">
        22 54 73 316 414 81 75 287 return
      </CharString>
      <CharString index="63">
        668 rmoveto
        hintmask 11011010
        -64 callgsubr
        hintmask 11100110
        40 -299 -40 hlineto
        return
      </CharString>
      <CharString index="64">
        -22 rmoveto
        394 692 rlineto
        -52 hlineto
        -394 -692 rlineto
        return
      </CharString>
      <CharString index="65">
        72 -22 114 -92 43 292 55 135 55 return
      </CharString>
      <CharString index="66">
        -70 -50 -53 -40 -156 hhcurveto
        return
      </CharString>
      <CharString index="67">
        -49 -41 23 66 hvcurveto
        return
      </CharString>
      <CharString index="68">
        -161 42 -114 101 118 vvcurveto
        129 114 111 161 45 vhcurveto
        1 -5 rlineto
        -110 -51 -95 -92 -137 vvcurveto
        return
      </CharString>
      <CharString index="69">
        -4 12 -7 29 -3 11 rrcurveto
        -42 -154 return
      </CharString>
      <CharString index="70">
        rmoveto
        60 -57 33 -99 -36 callsubr
        50 -126 39 3 callsubr
        endchar
      </CharString>
      <CharString index="71">
        66 vlineto
        49 41 -23 -66 hvcurveto
        return
      </CharString>
      <CharString index="72">
        vlineto
        -79 -48 -29 -4 callsubr
        29 79 hvcurveto
        return
      </CharString>
      <CharString index="73">
        rmoveto
        108 -23 16 -56 -40 vvcurveto
        return
      </CharString>
      <CharString index="74">
        49 41 -41 -48 hvcurveto
        return
      </CharString>
      <CharString index="75">
        52 -17 40 -24 -42 vvcurveto
        -39 -52 -32 -40 -10 vhcurveto
        -3 6 rlineto
        28 13 17 32 30 vvcurveto
        33 -15 25 -31 19 vhcurveto
        endchar
      </CharString>
      <CharString index="76">
        vlineto
        36 -10 50 -65 26 vhcurveto
        return
      </CharString>
      <CharString index="77">
        -15 callgsubr
        229 217 -56 callsubr
      </CharString>
      <CharString index="78">
        hvcurveto
        17 9 rlineto
        -43 22 61 -55 90 hhcurveto
        102 81 61 76 74 -79 60 -99 return
      </CharString>
      <CharString index="79">
        vlineto
        -80 -50 -28 -59 -12 -13 1 1 -8 vhcurveto
        -5 -40 rlineto
        -3 33 35 -2 36 52 callgsubr
        631 vlineto
        80 50 28 59 12 13 -1 -1 8 vhcurveto
        5 40 rlineto
        3 -33 -35 2 -36 hhcurveto
        return
      </CharString>
      <CharString index="80">
        40 55 callsubr
        278 63 69 238 return
      </CharString>
      <CharString index="81">
        329 43 12 callgsubr
        224 43 -35 callsubr
        -294 vlineto
        -57 -32 -32 -58 -62 callgsubr
        24 callgsubr
        235 vlineto
        return
      </CharString>
      <CharString index="82">
        29 -21 541 -20 hstem
        258 vmoveto
        -51 callgsubr
        return
      </CharString>
      <CharString index="83">
        -107 -35 48 111 hvcurveto
        230 vlineto
        69 24 52 81 124 127 -129 -57 38 vhcurveto
        51 return
      </CharString>
      <CharString index="84">
        34 22 32 callgsubr
        -8 vhcurveto
        return
      </CharString>
      <CharString index="85">
        -103 -103 -109 -36 -55 hvcurveto
        311 139 rmoveto
        -57 -44 -60 -52 -18 vhcurveto
        -5 3 rlineto
        24 37 8 49 46 vvcurveto
        46 -8 49 -24 37 72 callgsubr
        52 -18 44 -60 -57 vvcurveto
        return
      </CharString>
      <CharString index="86">
        -10 callgsubr
        hlineto
        -49 -41 41 48 hvcurveto
        return
      </CharString>
      <CharString index="87">
        314 83 97 93 95 -85 95 -321 return
      </CharString>
      <CharString index="88">
        53 callsubr
        -24 -68 -40 callsubr
        return
      </CharString>
      <CharString index="89">
        0 0 callsubr
        return
      </CharString>
      <CharString index="90">
        -35 callsubr
        -456 vlineto
        -66 -41 -23 -49 -62 callgsubr
        -40 callgsubr
        -224 73 callsubr
        634 51 hlineto
        return
      </CharString>
      <CharString index="91">
        vlineto
        83 34 62 117 157 155 -121 -98 52 vhcurveto
        48 239 -48 -50 hlineto
        return
      </CharString>
      <CharString index="92">
        -34 callgsubr
        -360 -51 360 -31 callgsubr
        return
      </CharString>
      <CharString index="93">
        hvcurveto
        -258 -108 -41 callsubr
        return
      </CharString>
      <CharString index="94">
        -297 -213 -125 -175 return
      </CharString>
      <CharString index="95">
        359 291 155 192 return
      </CharString>
      <CharString index="96">
        216 -49 callgsubr
        return
      </CharString>
      <CharString index="97">
        493 43 -66 return
      </CharString>
      <CharString index="98">
        29 46 6 9 28 hvcurveto
        40 89 rmoveto
        return
      </CharString>
      <CharString index="99">
        68 240 229 63 51 159 return
      </CharString>
      <CharString index="100">
        hstemhm
        -11 callgsubr
        return
      </CharString>
      <CharString index="101">
        -4 callgsubr
        57 -28 45 -47 20 vhcurveto
        return
      </CharString>
      <CharString index="102">
        174 -40 164 -13 -114 -3 -5 1 -3 vvcurveto
        -49 55 -60 15 -126 29 rrcurveto
        -308 71 -144 56 93 vvcurveto
        16 3 17 10 18 vhcurveto
        return
      </CharString>
      <CharString index="103">
        rmoveto
        78 -18 46 -47 -64 vvcurveto
        -314 -51 314 vlineto
        return
      </CharString>
      <CharString index="104">
        rmoveto
        87 41 26 97 110 vvcurveto
        104 -40 80 -72 35 vhcurveto
        3 10 rlineto
        104 -31 57 -83 -115 vvcurveto
        -119 -37 -101 -123 -35 vhcurveto
        endchar
      </CharString>
      <CharString index="105">
        194 -22 125 -103 0 callsubr
        return
      </CharString>
      <CharString index="106">
        41 callgsubr
        164 190 return
      </CharString>
      <CharString index="107">
        rmoveto
        -66 564 66 hlineto
        return
      </CharString>
      <CharString index="108">
        523 61 rmoveto
        -58 66 92 -25 94 hhcurveto
        237 128 162 156 145 -111 139 -233 -98 -110 -34 -56 -65 hvcurveto
        return
      </CharString>
      <CharString index="109">
        -540 -80 540 hlineto
        endchar
      </CharString>
      <CharString index="110">
        -41 callgsubr
        -63 callgsubr
        return
      </CharString>
      <CharString index="111">
        vlineto
        53 45 46 54 vhcurveto
        198 83 -198 hlineto
        -54 -45 46 53 hvcurveto
        return
      </CharString>
      <CharString index="112">
        0 43 269 60 233 45 return
      </CharString>
      <CharString index="113">
        110 44 -44 156 hhcurveto
        return
      </CharString>
      <CharString index="114">
        123 vvcurveto
        124 return
      </CharString>
      <CharString index="115">
        110 -20 hstemhm
        return
      </CharString>
      <CharString index="116">
        -75 83 rlineto
        62 hlineto
        75 -83 rlineto
        endchar
      </CharString>
      <CharString index="117">
        -187 20 callgsubr
        28 43 -704 -43 67 hlineto
        565 -630 rlineto
        36 hlineto
        return
      </CharString>
      <CharString index="118">
        -107 -22 48 173 60 277 43 return
      </CharString>
      <CharString index="119">
        rmoveto
        23 callsubr
        return
      </CharString>
      <CharString index="120">
        69 -92 57 -113 return
      </CharString>
      <CharString index="121">
        68 32 callsubr
        return
      </CharString>
      <CharString index="122">
        rlineto
        32 hlineto
        482 534 rlineto
        55 hlineto
        -550 -484 -37 callsubr
        return
      </CharString>
      <CharString index="123">
        vlineto
        -80 -49 -29 43 callgsubr
        855 hlineto
        185 336 58 279 231 -307 82 -306 hvcurveto
        return
      </CharString>
      <CharString index="124">
        96 447 rmoveto
        -261 762 -1 -115 vvcurveto
        -43 -90 -7 -77 -258 -250 165 96 -42 vhcurveto
        -47 hlineto
        return
      </CharString>
      <CharString index="125">
        -351 -18 callgsubr
        return
      </CharString>
      <CharString index="126">
        -35 -103 -123 -253 hhcurveto
        -146 -49 58 133 hvcurveto
        return
      </CharString>
      <CharString index="127">
        190 rlineto
        -23 23 -12 32 28 vvcurveto
        40 22 34 41 vhcurveto
        return
      </CharString>
      <CharString index="128">
        -19 callsubr
        hstem
        return
      </CharString>
      <CharString index="129">
        -22 -13 -21 -13 -44 hhcurveto
        return
      </CharString>
      <CharString index="130">
        -59 hvcurveto
        -346 vlineto
        return
      </CharString>
      <CharString index="131">
        -58 -32 32 57 hvcurveto
        return
      </CharString>
      <CharString index="132">
        -9 callsubr
        -49 callgsubr
        return
      </CharString>
      <CharString index="133">
        vhcurveto
        -120 -43 return
      </CharString>
      <CharString index="134">
        rmoveto
        77 -103 62 -126 -128 -102 -62 -77 -77 102 -62 128 126 103 62 77 vhcurveto
        -30 return
      </CharString>
      <CharString index="135">
        rmoveto
        -402 181 402 181 -34 71 -478 -222 rlineto
        -60 vlineto
        478 -222 rlineto
        return
      </CharString>
      <CharString index="136">
        -41 callsubr
        endchar
      </CharString>
      <CharString index="137">
        rmoveto
        77 -102 62 -126 -127 -103 -62 -77 -77 103 -62 127 126 102 62 77 vhcurveto
        return
      </CharString>
      <CharString index="138">
        -133 vhcurveto
        -43 695 43 68 callgsubr
        -182 return
      </CharString>
      <CharString index="139">
        vvcurveto
        16 -15 4 return
      </CharString>
      <CharString index="140">
        rmoveto
        -230 -230 -80 230 -230 80 230 230 80 -230 230 vlineto
        return
      </CharString>
      <CharString index="141">
        642 -68 callsubr
        -41 callgsubr
        return
      </CharString>
      <CharString index="142">
        vlineto
        60 45 38 74 172 51 -122 -160 -140 -43 -141 -124 vhcurveto
        return
      </CharString>
      <CharString index="143">
        67 34 37 27 20 32 callgsubr
        -9 vhcurveto
        return
      </CharString>
      <CharString index="144">
        -21 vhcurveto
        -3 return
      </CharString>
      <CharString index="145">
        -89 callgsubr
        endchar
      </CharString>
      <CharString index="146">
        304 67 32 callsubr
        return
      </CharString>
      <CharString index="147">
        274 182 274 return
      </CharString>
      <CharString index="148">
        190 -110 110 return
      </CharString>
      <CharString index="149">
        50 -91 43 -142 -89 -51 -19 -22 -53 vhcurveto
        20 -27 -110 26 vlineto
        return
      </CharString>
      <CharString index="150">
        -60 26 callgsubr
        return
      </CharString>
      <CharString index="151">
        -494 -43 66 hlineto
        return
      </CharString>
      <CharString index="152">
        -53 -44 -46 -54 vhcurveto
        -199 -83 203 hlineto
        52 42 -48 -51 hvcurveto
        return
      </CharString>
      <CharString index="153">
        rmoveto
        55 22 44 26 26 22 -44 -55 return
      </CharString>
      <CharString index="154">
        63 51 223 return
      </CharString>
      <CharString index="155">
        hstemhm
        121 57 -57 278 341 257 -159 159 return
      </CharString>
      <CharString index="156">
        -290 71 -136 56 93 vvcurveto
        16 5 17 9 18 vhcurveto
        return
      </CharString>
      <CharString index="157">
        124 43 -1204 -43 106 vlineto
        49 41 -42 -48 hvcurveto
        return
      </CharString>
      <CharString index="158">
        37 -102 -123 37 -134 hhcurveto
        return
      </CharString>
      <CharString index="159">
        hhcurveto
        339 94 82 136 hvcurveto
        return
      </CharString>
      <CharString index="160">
        72 -71 60 -88 -86 -71 -60 -72 return
      </CharString>
      <CharString index="161">
        0 43 413 124 return
      </CharString>
      <CharString index="162">
        84 callsubr
        vlineto
        49 return
      </CharString>
      <CharString index="163">
        55 callgsubr
        41 -41 -48 hvcurveto
        -294 vlineto
        return
      </CharString>
      <CharString index="164">
        54 callsubr
        hstemhm
        60 65 -65 404 return
      </CharString>
      <CharString index="165">
        185 62 51 225 248 63 52 254 return
      </CharString>
      <CharString index="166">
        127 -22 53 576 43 return
      </CharString>
      <CharString index="167">
        vhcurveto
        3 3 rlineto
        return
      </CharString>
      <CharString index="168">
        281 rmoveto
        return
      </CharString>
      <CharString index="169">
        hlineto
        -55 -205 rlineto
        80 67 callgsubr
        return
      </CharString>
      <CharString index="170">
        -34 -21 callsubr
        return
      </CharString>
      <CharString index="171">
        -2 callsubr
        -43 return
      </CharString>
      <CharString index="172">
        67 callgsubr
        -80 hlineto
        -55 -205 rlineto
        return
      </CharString>
      <CharString index="173">
        -23 vhcurveto
        -3 -5 rlineto
        return
      </CharString>
      <CharString index="174">
        hlineto
        55 205 rlineto
        return
      </CharString>
      <CharString index="175">
        vlineto
        -133 return
      </CharString>
      <CharString index="176">
        72 callsubr
        -22 -23 -15 -32 -37 vvcurveto
        return
      </CharString>
      <CharString index="177">
        146 -108 -20 hstemhm
        return
      </CharString>
      <CharString index="178">
        269 -49 callgsubr
        return
      </CharString>
      <CharString index="179">
        vhcurveto
        5 3 rlineto
        return
      </CharString>
      <CharString index="180">
        60 callsubr
        hlineto
        return
      </CharString>
      <CharString index="181">
        44 -24 -20 hstemhm
        22 59 71 322 return
      </CharString>
      <CharString index="182">
        -20 hstem
        360 61 58 232 vstem
        return
      </CharString>
      <CharString index="183">
        rmoveto
        -810 -80 810 hlineto
        endchar
      </CharString>
      <CharString index="184">
        29 230 return
      </CharString>
      <CharString index="185">
        212 -29 return
      </CharString>
      <CharString index="186">
        2 -22 41 -2 -21 535 40 return
      </CharString>
      <CharString index="187">
        -508 -31 -21 722 -20 hstem
        return
      </CharString>
      <CharString index="188">
        0 callgsubr
        endchar
      </CharString>
      <CharString index="189">
        -146 433 rlineto
        return
      </CharString>
      <CharString index="190">
        146 -433 rlineto
        return
      </CharString>
      <CharString index="191" raw="1">
        1ff7b707 0b  
      </CharString>
      <CharString index="192">
        80 hstem
        640 return
      </CharString>
</ttFont>
